<?xml version="1.0" encoding="iso-8859-1"?>
<!-- Generator: Adobe Illustrator 18.1.1, SVG Export Plug-In . SVG Version: 6.00 Build 0)  -->
<svg version="1.1" id="Capa_1" xmlns="http://www.w3.org/2000/svg" xmlns:xlink="http://www.w3.org/1999/xlink" x="0px" y="0px"
	 viewBox="0 0 115.783 115.783" style="enable-background:new 0 0 115.783 115.783;" xml:space="preserve">
<g>
	<g>
		<polygon style="fill:#010002;" points="52.101,49.626 48.243,53.488 67.536,53.488 63.682,49.626 		"/>
		<path style="fill:#010002;" d="M50.526,32.866c0.011-0.079-0.197-0.376-0.286-0.465c-0.286-0.279-0.48-0.225-0.737,0.104
			c0.254,0.032,0.283-0.319,0.365-0.039c0.319,0.039,0.387,0.376,0.297,0.591c0.161,0.025,0.319,0.225,0.465,0.025
			C50.566,32.988,50.666,32.909,50.526,32.866z"/>
		<path style="fill:#010002;" d="M61.993,28.633c-0.014-0.007-0.021-0.025-0.021-0.047c-0.032,0.021-0.064,0.036-0.097,0.036
			c0.029,0.032,0.054,0.147,0.097,0.157C61.989,28.761,61.989,28.676,61.993,28.633z"/>
		<path style="fill:#010002;" d="M60.053,26.782c0,0.075,0.014,0.057,0.014,0.154c0.007,0,0.021,0,0.032,0
			c-0.007-0.011-0.018-0.018,0-0.039c0.136,0.068,0.029,0.025,0.025,0.118c0,0.043,0.172,0.021,0.197,0.025
			c-0.047,0.061,0.007,0.072,0.075,0.072c0,0.086-0.118,0.086-0.186,0.079c0,0.1-0.082,0.111-0.082,0.165
			c0,0.014,0.222,0.057,0.251,0.025c0,0.047-0.229,0.086-0.279,0.168c0.082,0.004,0.798-0.061,0.798-0.089
			c-0.029-0.007-0.057-0.014-0.082-0.018c0.093-0.111,0.093-0.218,0-0.172c-0.014,0.004-0.021,0.011-0.05,0.014
			c-0.007-0.161-0.251-0.326-0.412-0.369c0.014-0.039,0.154-0.093,0.14-0.161c-0.125,0.057-0.208,0.043-0.247-0.036
			c0.036-0.014,0.068-0.032,0.1-0.054c0-0.136-0.344,0.043-0.272,0.072c0,0.014-0.093-0.014-0.104-0.014
			C59.96,26.761,59.992,26.772,60.053,26.782z"/>
		<path style="fill:#010002;" d="M60.186,27.079c-0.025,0.007-0.029,0.018-0.029,0.032c0.029,0,0.036,0,0.05,0.004
			c0-0.014,0-0.025,0-0.032C60.2,27.079,60.193,27.079,60.186,27.079z"/>
		<path style="fill:#010002;" d="M51.31,33.457C51.292,33.392,51.299,33.41,51.31,33.457c-0.061-0.111-0.039-0.272-0.197-0.297
			c-0.075-0.011-0.161,0.057-0.215-0.032c-0.118-0.179-0.125,0.286-0.129,0.333c-0.029-0.014-0.515,0.029-0.268,0.172
			c0.097-0.265,0.322,0.147,0.326,0.147c0.036,0.007,0.19-0.229,0.2-0.129c0,0.004,0.329,0.004,0.344,0.007
			c0,0.007-0.043-0.14-0.057-0.208C51.31,33.453,51.31,33.457,51.31,33.457z"/>
		<path style="fill:#010002;" d="M62.809,29.313c-0.061-0.014-0.308-0.036-0.361-0.018c0.007,0.054,0.279,0.204,0.344,0.211
			C62.798,29.502,62.802,29.348,62.809,29.313z"/>
		<path style="fill:#010002;" d="M51.532,33.793c-0.036,0.115,0.161,0.172,0.218,0.093C51.747,33.833,51.568,33.682,51.532,33.793z"
			/>
		<path style="fill:#010002;" d="M65.346,29.91c-0.075,0.004-0.179,0.036-0.233,0.061C65.139,30.1,65.35,29.975,65.346,29.91z"/>
		<path style="fill:#010002;" d="M61.868,28.851c0.011,0.032,0.057,0.057,0.057,0.089C61.975,29.309,62.215,28.801,61.868,28.851z"
			/>
		<path style="fill:#010002;" d="M53.124,26.178c-0.018,0-0.039,0.004-0.057,0.007c0.032,0,0.057,0,0.079-0.007
			c0.089-0.004,0.168-0.014,0.147-0.036c0.007-0.004,0.025-0.007,0.036-0.007c-0.054-0.05-0.261-0.029-0.333-0.021
			c-0.018,0.007-0.014,0.011,0.018,0.011c-0.007,0.004-0.021,0.007-0.032,0.007c0.007,0.004,0.029,0,0.082-0.004
			c-0.032,0.021-0.072,0.029-0.107,0.025C52.974,26.17,53.049,26.178,53.124,26.178z"/>
		<path style="fill:#010002;" d="M52.895,26.213c-0.039-0.004-0.011-0.021-0.075-0.021c-0.021,0.011-0.007,0.036,0.018,0.036
			C52.86,26.228,52.881,26.224,52.895,26.213z"/>
		<path style="fill:#010002;" d="M53.636,26.185c0.029,0,0.05-0.007,0.075-0.021c-0.072,0.004-0.147,0-0.215,0.014
			C53.493,26.178,53.622,26.185,53.636,26.185z"/>
		<path style="fill:#010002;" d="M59.631,27.351c0.215,0.014,0.347-0.047,0.351-0.24c0-0.029,0.179-0.136-0.064-0.154
			c-0.036-0.004-0.243-0.011-0.168,0.075c-0.036,0.014-0.165,0-0.168,0.047c0.025,0.021,0.054,0.043,0.075,0.064
			C59.642,27.197,59.409,27.337,59.631,27.351z"/>
		<path style="fill:#010002;" d="M53.482,26.149c-0.125,0.014,0.075,0.004,0.136,0C53.676,26.081,53.414,26.099,53.482,26.149z"/>
		<path style="fill:#010002;" d="M59.924,26.707c0.047,0,0.075-0.025,0.079-0.05C59.996,26.657,59.846,26.7,59.924,26.707z"/>
		<path style="fill:#010002;" d="M53.55,26.067c0.007-0.004,0.018-0.011,0.029-0.014c-0.014,0-0.05,0-0.082,0.004
			C53.457,26.074,53.59,26.067,53.55,26.067z"/>
		<path style="fill:#010002;" d="M49.632,32.609c0.021-0.047,0.032,0.107,0.111-0.115c-0.025-0.029-0.025,0.007-0.043,0.047
			C49.664,32.544,49.642,32.569,49.632,32.609z"/>
		<polygon style="fill:#010002;" points="51.886,26.789 51.897,26.789 51.9,26.789 		"/>
		<path style="fill:#010002;" d="M62.73,26.983c0.021-0.029,0.047-0.057,0.068-0.086C62.769,26.897,62.673,26.943,62.73,26.983z"/>
		<path style="fill:#010002;" d="M63.142,26.918c0.05,0.004,0.072-0.039,0.072-0.075c-0.021-0.011-0.125-0.039-0.036,0.025
			c-0.032,0-0.054,0.011-0.079,0.011C63.095,26.89,63.106,26.915,63.142,26.918z"/>
		<path style="fill:#010002;" d="M50.15,33.568c-0.021-0.025-0.068-0.082-0.122-0.093c-0.036-0.007-0.168,0.161,0.132,0.15
			c0.007-0.032,0.007-0.057-0.014-0.075C50.147,33.554,50.15,33.557,50.15,33.568z"/>
		<path style="fill:#010002;" d="M51.886,26.789c-0.082,0-0.147,0-0.165,0.014C51.7,26.818,51.843,26.797,51.886,26.789z"/>
		<polygon style="fill:#010002;" points="51.324,26.815 51.289,26.843 51.335,26.836 		"/>
		<path style="fill:#010002;" d="M52.298,26.725c0,0-0.014-0.032-0.025-0.029c0.039-0.025,0.125-0.018,0.172-0.029
			c-0.089-0.072-0.161,0.007-0.104-0.122c0.011-0.029,0.154-0.115,0.165-0.111c-0.168-0.061-0.293,0.136-0.419,0.143
			c0.021,0-0.19-0.075-0.319-0.043c0.007-0.036-0.004-0.047-0.021-0.047c0.004-0.004,0.004-0.014,0.004-0.029
			c-0.018,0.014-0.032,0.029-0.047,0.039l0,0c-0.007,0.004-0.014,0.011-0.021,0.014c-0.068,0.05-0.129,0.107-0.197,0.161
			c0.043-0.004,0.1-0.014,0.14,0.004c-0.104,0.011-0.157,0.029-0.233,0.075c-0.007,0.004-0.014,0.011-0.021,0.018
			c0.025,0,0.057-0.004,0.061,0C51.467,26.807,52.176,26.786,52.298,26.725z"/>
		<path style="fill:#010002;" d="M50.755,31.531c-0.018,0-0.061,0.018-0.079,0.039c0.025,0.004,0.064,0.014,0.111,0.011
			C50.787,31.567,50.787,31.535,50.755,31.531z"/>
		<path style="fill:#010002;" d="M50.598,31.871c-0.007,0.014-0.029,0.208,0.021,0.097C50.63,31.947,50.612,31.846,50.598,31.871z"
			/>
		<path style="fill:#010002;" d="M52.82,26.303c0.036,0,0.089-0.011,0.143-0.014c-0.032-0.007-0.147-0.054-0.147-0.021l0,0
			l-0.032,0.018c0.011,0.004,0.014,0.011,0.047,0.007C52.82,26.296,52.82,26.296,52.82,26.303z"/>
		<path style="fill:#010002;" d="M50.859,32.766c0.075,0.004,0.115-0.025,0.122-0.093C50.963,32.687,50.791,32.748,50.859,32.766z"
			/>
		<path style="fill:#010002;" d="M61.248,25.845c-0.007,0-0.014,0-0.021,0c0.036,0.025,0.161,0.011,0.222,0.007
			c-0.057,0.007-0.15,0.025-0.15,0.021c0,0.025,0.172,0.021,0.193,0.025c-0.057,0-0.104,0-0.161,0
			c0.011,0.122,0.351,0.004,0.462-0.021c0.011,0.011,0.036,0.021,0.057,0.025c-0.007,0.014-0.039,0.007-0.039,0.025
			c0.032,0.004,0.089,0.007,0.125,0.011c-0.007,0.004-0.004,0.011,0,0.018c0.075-0.004,0.1-0.021,0.179-0.025
			c-0.079-0.043-0.186-0.054-0.265-0.064c0.007,0,0.014,0,0.029,0c-0.021-0.007-0.043-0.014-0.072-0.025
			c0.15,0.014,0.422-0.029,0.483-0.036c-0.161-0.079-0.433-0.043-0.608-0.047c0.007,0.004,0.007,0.004,0.014,0.007
			c-0.014,0-0.029,0-0.043,0v0.004c-0.029-0.004-0.057-0.004-0.082-0.004c0.014,0.032,0.104,0.029,0.125,0.029
			c0.007,0,0.111,0.004,0.125,0.007c-0.039,0-0.075,0.004-0.118,0c0.007,0.007,0.014,0.014,0.029,0.018
			c-0.064-0.014-0.125-0.018-0.175-0.014c0-0.004,0.007-0.007,0.007-0.014c0-0.004-0.215-0.061-0.111,0.029
			c-0.021-0.004-0.175-0.025-0.125-0.014c-0.014-0.004-0.043-0.004-0.064-0.014c0.007,0,0.014-0.004,0.029-0.007
			c-0.064-0.011-0.118-0.007-0.183,0.007c0.021,0.011,0.05,0.018,0.075,0.021C61.173,25.83,61.206,25.838,61.248,25.845z"/>
		<path style="fill:#010002;" d="M52.813,27.233c0.054-0.007,0.168-0.047,0.218-0.068c-0.072-0.018-0.132,0.014-0.193,0.043
			C52.831,27.215,52.82,27.226,52.813,27.233z"/>
		<polygon style="fill:#010002;" points="61.12,25.827 61.12,25.823 61.112,25.827 		"/>
		<path style="fill:#010002;" d="M62.007,27.165c0.068,0.014,0.072-0.068,0.132-0.075c-0.089-0.154-0.265,0.007-0.082,0.043
			C62.061,27.151,62.036,27.162,62.007,27.165z"/>
		<path style="fill:#010002;" d="M54.066,28.654c-0.018,0.032,0.175,0.143,0.229,0.036c-0.082,0.025-0.15,0.007-0.2-0.057
			C54.084,28.636,54.069,28.643,54.066,28.654z"/>
		<path style="fill:#010002;" d="M55.143,26.013c0-0.011-0.021-0.014-0.043-0.014c0.039,0,0.064,0,0.075-0.014
			c-0.018,0-0.036,0-0.057,0c0.218-0.057,0.455-0.05,0.673-0.111c-0.039,0-0.111,0.004-0.122,0c0.021-0.004,0.268-0.004,0.283-0.032
			c0.018-0.036-0.397,0.025-0.24-0.014c-0.304-0.107-1.16-0.032-1.46,0.079c0.057,0,0.111-0.007,0.165-0.011
			c-0.032,0.004-0.05,0.007-0.086,0.014c0.064,0.011,0.125-0.014,0.19-0.011c-0.068,0.007-0.122,0.007-0.183,0.025
			c0.036,0,0.075-0.004,0.107-0.004c-0.025,0.004-0.05,0.007-0.075,0.011c0.011,0.018,0.064,0.021,0.132,0.021
			c0.036,0.011,0.021,0.018-0.043,0.018c0.025,0.004,0.097,0.029,0.089,0.036c-0.14,0.093-0.157-0.011-0.24,0.036
			c0.039-0.021,0.036-0.029-0.007-0.029c-0.057,0.029-0.222-0.043-0.304-0.039c-0.018,0.011,0.021,0.011,0.043,0.011
			c-0.05,0-0.097,0.004-0.147,0.011c0.004,0.007,0.011,0.007,0.018,0.011c-0.036,0-0.075-0.004-0.107,0.011
			c0.025,0.011,0.05,0.014,0.075,0.014c-0.039,0-0.086,0-0.129,0c-0.032,0.025,0.011,0.025,0.097,0.021
			c-0.007,0.004-0.014,0.004-0.018,0.004c0.068,0,0.175,0.007,0.208,0.011c-0.075,0-0.147,0.007-0.222,0.021
			c0.011,0.014,0.029,0.018,0.043,0.021c0.007,0,0.021,0,0.032-0.004c-0.004,0-0.014,0-0.018,0.004
			c0.057-0.014,0.222-0.004,0.276-0.007c0.004-0.007-0.004-0.007-0.004-0.014c0.068-0.014,0.183-0.025,0.247,0.025
			c-0.043,0.004-0.351-0.032-0.215,0.029c-0.05,0.004-0.104,0.011-0.15,0.025c0.247-0.025,0.637,0.118,0.802-0.043
			c0.011-0.007-0.061-0.004-0.086,0c0.039-0.036,0.132-0.018,0.15-0.068C54.989,26.056,55.043,26.034,55.143,26.013z"/>
		<path style="fill:#010002;" d="M54.506,28.364c-0.072-0.036-0.118-0.093-0.261-0.075C54.309,28.339,54.424,28.425,54.506,28.364z"
			/>
		<path style="fill:#010002;" d="M52.369,26.192c0.032-0.011,0.068-0.011,0.1-0.004c-0.082,0.018-0.175,0.057-0.115,0.057
			c0.05,0,0.143-0.014,0.172-0.036c-0.104,0.007-0.086,0.004,0.054-0.011c0-0.007-0.007-0.011-0.011-0.014
			c0.011,0,0.021,0,0.036-0.004C52.534,26.178,52.409,26.17,52.369,26.192z"/>
		<polygon style="fill:#010002;" points="53.847,26.124 53.869,26.12 53.858,26.12 		"/>
		<path style="fill:#010002;" d="M57.763,26.747c0.286,0.029,0.444,0.15,0.748,0.014c0.021-0.036-0.1-0.1-0.018-0.122
			c-0.039-0.004-0.358-0.039-0.361,0c-0.043-0.025-0.097,0.011-0.129-0.032c-0.032,0.018-0.125,0.054-0.086-0.039
			c-0.043-0.004-0.107,0.014-0.15,0.021c-0.004,0.014,0.118,0.075,0.115,0.072c-0.036,0.004-0.115,0.007-0.154,0.004
			c0.014,0.021,0.075,0.007,0.115,0.018c-0.018,0.021-0.036,0.032-0.054,0.057C57.784,26.739,57.773,26.747,57.763,26.747z"/>
		<path style="fill:#010002;" d="M54.388,26.414c0.072,0,0.208,0,0.272-0.029c-0.082-0.018-0.272-0.075-0.354-0.011
			C54.28,26.389,54.381,26.414,54.388,26.414z"/>
		<path style="fill:#010002;" d="M67.318,34.173c-0.354,0.064-0.49,0.168-0.583-0.261c-0.072-0.297-0.58-0.501-0.648-0.816
			c-0.054-0.236-0.107-0.322-0.265-0.497c-0.147-0.165-0.093-0.447-0.211-0.648c-0.1-0.175-0.125-0.358-0.222-0.537
			c-0.14-0.268-0.426-0.626-0.44-0.927c0.089,0.1,0.197,0.372,0.301,0.39c0.072-0.293,0.075-0.369-0.036-0.651
			c-0.193,0.054-0.365-0.068-0.544,0c-0.243,0.093-0.44,0.061-0.687-0.029c-0.179-0.064-0.884-0.476-0.873,0.004
			c0.011,0.555-0.655-0.168-0.82-0.222c-0.19-0.061-0.494,0.047-0.494-0.276c0-0.179,0.075-0.315,0.079-0.476
			c-0.057,0.05-0.1,0.047-0.147-0.011c-0.079-0.125-0.197,0.039-0.283,0.043c-0.186,0.007-0.354,0-0.533,0.007
			c-0.279,0.011-0.565,0.157-0.805,0.29c-0.293,0.172-0.548-0.079-0.716,0.147c0.004,0,0.004,0,0.007,0
			c-0.147,0.193-0.315,0.365-0.458,0.565c-0.097,0.136-0.064,0.311-0.111,0.465c-0.047,0.147-0.208,0.283-0.347,0.333
			c-0.247,0.089-0.347,0.372-0.451,0.598c-0.082,0.183-0.15,0.354-0.247,0.526c-0.129,0.229,0.047,0.594,0.036,0.837
			c-0.007,0.175-0.072,0.379-0.165,0.526c-0.089,0.147,0.029,0.319,0.025,0.508c-0.004,0-0.011,0-0.018,0
			c0.097,0.154,0.211,0.293,0.333,0.426c0.215,0.236,0.258,0.551,0.487,0.784c0.172,0.172,0.376,0.447,0.651,0.351
			c0.125-0.043,0.225-0.122,0.369-0.125c0.115-0.004,0.204,0.1,0.315,0.097c0.268-0.007,0.533-0.383,0.855-0.39
			c0.233-0.004,0.218,0.397,0.419,0.394c0.662-0.014,0.58,0.458,0.412,0.916c-0.104,0.293,0.183,0.573,0.344,0.78
			c0.168,0.208,0.186,0.519,0.251,0.769c0.064,0.236,0.175,0.605,0.118,0.852c-0.057,0.243-0.258,0.419-0.304,0.669
			c-0.068,0.351,0.075,0.698,0.222,1.006c0.154,0.293,0.161,0.419,0.197,0.741c0.075,0.701,0.608,1.206,0.601,1.879
			c0.068-0.043,0.286,0.093,0.476-0.004c0.197-0.104,0.372-0.057,0.573-0.075c0.014-0.082,0.39-0.218,0.472-0.322
			c0.179-0.247,0.29-0.533,0.487-0.766c0.218-0.254-0.029-0.44,0.222-0.651c0.236-0.197,0.315-0.118,0.329-0.505
			c0.004-0.165-0.308-0.569,0.032-0.637c0.039-0.243,0.279-0.347,0.465-0.458c0.526-0.329,0.118-0.791,0.336-1.245
			c0.075-0.165-0.175-0.361-0.175-0.544c0-0.172-0.039-0.344-0.036-0.523c0-0.172,0.147-0.261,0.183-0.422
			c0.129-0.605,0.651-0.773,0.97-1.242c0.276-0.404,0.82-1.36,0.612-1.85C67.705,34.026,67.515,34.13,67.318,34.173z"/>
		<path style="fill:#010002;" d="M55.096,28.514c-0.018,0-0.043,0.004-0.057,0.011c0.018-0.05,0.036-0.079,0.05-0.107
			c-0.029,0.011-0.086,0.007-0.136,0c-0.018,0.004-0.039,0.007-0.061,0.011l0.007-0.014c-0.029,0-0.054,0-0.082,0
			c0.004-0.025,0.018-0.039,0.043-0.047c-0.05-0.021-0.097-0.018-0.143,0.007c0.004-0.007,0.251-0.211,0.186-0.211
			c-0.2,0-0.347,0.283-0.537,0.34c0,0.011,0.014,0.018,0.029,0.018c-0.021,0.05-0.097,0.036-0.118,0.079
			c-0.004,0.004,0.472,0.039,0.526,0.039c-0.032,0.011-0.057,0.029-0.075,0.057c-0.007,0.021,0.208-0.093,0.204-0.089
			c0.093,0.097,0.082,0.233,0.175-0.011c-0.032,0.014-0.021,0.021-0.072,0.018C55.068,28.547,55.057,28.586,55.096,28.514z"/>
		<path style="fill:#010002;" d="M57.748,26.356c-0.014,0-0.025-0.007-0.021-0.018c0.054-0.004,0.115-0.014,0.14-0.036
			c-0.039,0.004-0.075,0-0.107-0.021c0.014-0.039,0.086,0.011,0.107-0.043c0.021-0.057-0.111-0.05-0.104-0.064
			c0.029-0.072,0.243,0.029,0.272-0.043c-0.036-0.018-0.072-0.029-0.107-0.032c0.014,0,0.039-0.004,0.054-0.007
			c-0.061-0.018-0.125-0.021-0.19-0.011c0.075-0.039,0.483-0.129,0.515-0.186c0.111-0.004,0.326-0.018,0.358-0.068
			c0.007-0.014-1.002,0.107-1.059,0.115c0.011-0.011,0.222-0.075,0.225-0.082c0.004-0.004-0.039-0.004-0.1,0.004
			c0.075-0.011,0.136-0.032,0.172-0.064c-0.533-0.011-1.117-0.043-1.636,0.079c0.004,0.004,0.018,0.004,0.029,0.011
			c-0.025,0-0.054,0.004-0.079,0.011c0.025,0.018,0.054,0.025,0.086,0.025c-0.047,0.004-0.254-0.039-0.279,0
			c-0.004,0.004,0,0.011,0.004,0.014c-0.043-0.014-0.1-0.025-0.122,0.011c-0.075,0.004-0.601,0.025-0.659,0.136
			c0.032,0.011,0.064,0.014,0.097,0.007c-0.057,0.107-0.297,0.014-0.344,0.107c-0.014,0.032,0.218,0.018,0.236,0.014
			c-0.047,0.054-0.175-0.007-0.215,0.054c0.032-0.007,0.064-0.004,0.093,0.011c-0.007,0.007-0.018,0.007-0.032,0.014
			c0.032,0.018,0.068,0.021,0.1,0.014c-0.004,0-0.007-0.004-0.011-0.004c0.1-0.029,0.483-0.029,0.412,0.15
			c0.047,0.011,0.047,0.029-0.004,0.057c0.043-0.004,0.154,0.061,0.172,0.064c-0.032,0.05-0.1-0.011-0.147,0
			c-0.004,0.032,0.115,0.036,0.165,0.047c-0.054,0.064-0.193,0.079-0.218,0.165c0.011-0.004,0.021-0.004,0.032,0
			c-0.068,0.093,0.047,0.107,0.075,0.143c-0.147,0.075,0.251,0.258,0.308,0.265c0.086,0.007,0.279-0.322,0.44-0.351
			c0,0.007-0.004,0.014-0.007,0.025c0.175,0.004,0.265-0.097,0.419-0.14c0.236,0.004,0.483-0.036,0.705-0.115
			c-0.054-0.007-0.293-0.004-0.279-0.047c0.075-0.007,0.036-0.007,0.047-0.047c0.036,0.007,0.29,0.104,0.308,0.05
			c0.025-0.086-0.186-0.122-0.225-0.143c0.025-0.075,0.179,0.129,0.222,0c-0.043-0.021-0.086-0.043-0.132-0.054
			C57.548,26.378,57.677,26.439,57.748,26.356z"/>
		<path style="fill:#010002;" d="M54.549,28.672c0.004-0.011-0.014-0.018-0.014-0.032c-0.064,0.025-0.115,0.064-0.161,0.115
			c-0.021,0.043,0.157,0.036,0.186-0.029C54.456,28.726,54.531,28.711,54.549,28.672z"/>
		<path style="fill:#010002;" d="M52.795,26.453c-0.075,0.05-0.14,0-0.208,0.043c0.089,0.125,0.333,0.043,0.429-0.014
			c-0.011,0-0.043,0-0.054-0.004c0.068-0.047-0.025-0.014-0.061-0.014c0.05-0.007,0.097-0.025,0.143-0.043
			C53.035,26.424,52.598,26.446,52.795,26.453z"/>
		<path style="fill:#010002;" d="M52.742,26.321c-0.039,0.007-0.075,0.014-0.115,0.032c0.021,0,0.025,0,0.047,0
			C52.709,26.356,52.731,26.346,52.742,26.321z"/>
		<path style="fill:#010002;" d="M54.495,26.274c0.014-0.007,0.032-0.011,0.05-0.011c-0.007-0.05-0.784,0.018-0.734,0
			c-0.018-0.007-0.104,0.007-0.079-0.014c0.032,0,0.068-0.004,0.1-0.004c-0.011-0.039-0.412-0.043-0.451-0.018
			c0.039,0.018,0.082,0.025,0.129,0.025c0.05-0.032,0.079-0.018,0.089,0.032c-0.165,0.029,0.15,0.036,0.197,0.032
			c0.172-0.097,0.537,0.079,0.734-0.043C54.531,26.274,54.513,26.278,54.495,26.274z"/>
		<path style="fill:#010002;" d="M52.147,26.285c0.025,0.004,0.05-0.004,0.075-0.018c-0.029,0.004-0.054,0.004-0.079,0.004
			C52.126,26.281,52.137,26.285,52.147,26.285z"/>
		<path style="fill:#010002;" d="M53.235,26.324c0.004,0,0.301,0.011,0.222-0.032c-0.057-0.014-0.111-0.011-0.165,0.018
			C53.286,26.31,53.25,26.317,53.235,26.324z"/>
		<path style="fill:#010002;" d="M53.039,26.246c-0.011,0.014,0.021,0.011,0.064,0.011c-0.057,0.036-0.104-0.014-0.154,0.018
			c0,0.004,0.007,0.007,0.018,0.014c0.047-0.004,0.089-0.004,0.122,0.004c-0.032,0.011-0.104,0.018-0.14,0.039
			c0.057-0.036,0.322,0.05,0.322-0.086C53.268,26.246,53.056,26.242,53.039,26.246z"/>
		<path style="fill:#010002;" d="M77.192,22.327H38.594v25.084h38.598V22.327z M67.651,31.177c-0.021-0.025-0.054-0.054-0.079-0.079
			c0.068,0.172,0.129,0.347,0.186,0.523c0.004-0.018,0.011-0.039,0.036-0.039c0.05,0.1-0.018,0.218,0.097,0.29
			c0.032,0.111,0.05,0.229,0.075,0.34c-0.057-0.204-0.147-0.39-0.215-0.591c-0.004,0.018-0.007,0.036-0.032,0.039
			c-0.075-0.2-0.319-0.304-0.419-0.508c-0.175-0.354,0.1-0.211,0.265-0.054c-0.036-0.082-0.057-0.172-0.089-0.254
			C67.522,30.959,67.601,31.059,67.651,31.177z M66.835,29.509c-0.011,0-0.021,0.004-0.032,0.007
			c0.025,0.036,0.036,0.079,0.061,0.122c-0.079-0.143-0.172-0.276-0.254-0.412C66.674,29.33,66.767,29.409,66.835,29.509z
			 M64.967,27.219c0.075,0.072,0.122,0.168,0.2,0.243c-0.236-0.229-0.44-0.494-0.698-0.701C64.652,26.925,64.82,27.09,64.967,27.219
			z M51.972,26.324c0.004,0,0.007,0,0.014,0.004c-0.011,0-0.021,0.004-0.029,0.007C51.961,26.331,51.965,26.328,51.972,26.324z
			 M49.417,28.801c0.021-0.029,0.054-0.054,0.075-0.082c-0.025,0.036-0.061,0.068-0.086,0.104c-0.44,0.612-0.809,1.27-1.106,1.961
			c0.297-0.694,0.669-1.353,1.106-1.961C49.41,28.815,49.413,28.808,49.417,28.801z M52.634,43.893
			c0.011-0.029,0.032-0.047,0.064-0.047c0.021,0.047,0.054,0.089,0.089,0.136C52.738,43.95,52.688,43.921,52.634,43.893z
			 M67.164,39.67c-0.054,0.047-0.093,0.104-0.107,0.215c-1.775,3.235-5.214,5.429-9.165,5.429c-1.381,0-2.695-0.272-3.905-0.755
			c-0.047-0.14-0.54-0.236-0.261-0.404c0.183-0.086,0.036-0.329-0.007-0.426c0.032-0.007,0.193,0.043,0.147-0.061
			c0.032,0.068-0.44-0.15-0.251-0.2c0.1-0.029,0.347,0.05,0.276-0.115c0.004-0.082-0.157-0.258-0.004-0.297
			c0.132-0.032,0.347-0.061,0.412-0.204c0.179-0.401-0.2-0.29-0.301-0.555c0.021,0.057,0.555-0.025,0.591-0.197
			c0.05-0.258,0.143-0.483,0.179-0.741c0,0,0,0,0,0.004c0-0.1,0.029-0.186,0.093-0.261c-0.036-0.111-0.075-0.222-0.104-0.336
			c-0.025-0.132,0.154-0.322,0.247-0.383c0.347-0.218,0.404-0.361,0.508-0.759c0.032-0.233-0.204-0.759-0.125-0.916
			c0.111-0.208,0.551-1.056,0.089-1.156c-0.218-0.043-0.34-0.175-0.544-0.229c-0.204-0.061-0.429,0.007-0.605,0.025
			c-0.036-0.161-0.089-0.154-0.229-0.215c-0.376-0.157-0.2,0.19-0.394,0.208c-0.193,0.021-0.412-0.229-0.258-0.429
			c0.1-0.136-0.265-0.662-0.48-0.644c-0.186,0.004-0.673-0.039-0.787-0.208c-0.143-0.215-0.655-0.276-0.709-0.512
			c-0.136,0.029-0.297,0.118-0.39,0.082c-0.075-0.025-0.301,0.004-0.358-0.057c-0.072-0.082-0.222-0.193-0.347-0.186
			c0.011,0.064,0.082,0.032,0.115,0.097c-0.351,0.021-0.093,0.372-0.161,0.379c-0.154,0.007-0.111-0.322-0.111-0.39
			c0.043-0.036,0.05-0.072,0.018-0.104c-0.064-0.086-0.115,0.064-0.161,0.082c-0.215,0.093-0.565,0.29-0.512,0.576
			c-0.268,0.111,0,0.458,0.047,0.666c-0.025,0.05-0.007,0.079,0.05,0.1c0.004,0.218-0.29,0.451-0.293,0.666
			c-0.004,0.251-0.075,0.283,0.154,0.404c0,0.15-0.161,0.222-0.118,0.39c0.047,0.183,0.204,0.19,0.283,0.297
			c0.157,0.229,0.358,0.472,0.555,0.687c0.236,0.254,0.297,0.583,0.68,0.655c0.301,0.039,0.637,0.225,0.755,0.508
			c0.111,0.258,0.15,0.523,0.24,0.787c0.043,0.276,0.018,0.755,0.186,0.977c0.157,0.383,0.183,0.623,0.183,1.009
			c0,0.197,0.115,0.222,0.179,0.361c0.05,0.104,0,0.2,0.061,0.29c-3.038-1.825-5.071-5.15-5.071-8.954
			c0-0.633,0.079-1.245,0.186-1.847c-0.004,0-0.004-0.018-0.011-0.018c0.004-0.021,0.014-0.043,0.018-0.068
			c-0.004,0.029-0.004,0.057-0.007,0.086c0.075,0.032,0.107,0.315,0.208,0.34c0.086,0.021,0.175-0.225,0.225-0.032
			c0.072,0.018,0.039,0.354,0.064,0.422c0.072,0.179,0.204,0.276,0.344,0.322c-0.043,0.15-0.018,0.279-0.007,0.433
			c0.011,0.168-0.129,0.34-0.086,0.497c0.014,0.007,0.025,0.011,0.039,0.014c0-0.018,0.011-0.054,0.029-0.075
			c0.157,0.054,0.054,0.859,0.265,0.945c0.104,0.043,0.125-0.472,0.344-0.394c0.107,0.039,0.018,0.315,0.029,0.39
			c0,0.004,0.175-0.157,0.19-0.179c-0.036-0.132-0.043-0.487-0.276-0.387c-0.49,0.211-0.279-0.644-0.179-0.902
			c0.115-0.293,0.537-0.834-0.032-0.87c-0.472-0.029,0.072-0.469,0.132-0.573c0.047-0.054,0.086-0.097,0.129-0.19
			c0.064-0.14,0.183-0.24,0.251-0.379c-0.533-0.097-0.555,0.598-1.045,0.49c-0.361-0.075,0.419-1.374,0.458-1.467
			c0,0,0.004,0,0.007,0c0.154-0.268,0.347-0.39,0.608-0.533c0.179-0.097,0.301,0.172,0.433,0.111
			c-0.021-0.043,0.039-0.086,0.086-0.161c-0.029,0.014-0.021,0.014-0.05-0.004c0.075-0.025,0.147-0.007,0.215-0.025
			c-0.021,0.043,0.426,0.115,0.429,0.125c0.018,0.068-0.286,0.837-0.125,0.859c0.179,0.021,0.322-0.515,0.333-0.633
			c0.054-0.48,0.412-0.651,0.812-0.823c0-0.004-0.004-0.004-0.004-0.007c0.097-0.068,0.222-0.079,0.315-0.154
			c-0.075-0.082,0.036-0.057,0.075-0.115c-0.018-0.004-0.036-0.011-0.036-0.043c0.057-0.014,0.093-0.047,0.111-0.097
			c-0.007,0-0.021,0-0.029,0c-0.011-0.032,0.111-0.24,0.14-0.268c-0.004,0.014-0.054,0.218-0.061,0.215
			c0.14,0.004,0.165-0.229,0.236-0.272c-0.025-0.057,0.372-0.2,0.462-0.222c-0.021-0.029-0.115-0.004-0.147-0.004
			c0.157-0.072,0.372-0.061,0.519-0.115c-0.236,0.004,0.193-0.351,0.333-0.319c0.136,0.029,0.415-0.165,0.583-0.168
			c-0.032,0.047-0.021,0.064,0.039,0.054c-0.222,0.011-0.401,0.297-0.233,0.208c0.1-0.054,0.558-0.125,0.598-0.211
			c0.025-0.05-0.505-0.014-0.268-0.308c-0.021,0-0.061-0.011-0.1-0.011c0.068-0.043,0.193-0.021,0.236-0.1
			c0.054-0.093-0.608,0.057-0.641,0.061c0.272-0.218,1.585-0.172,1.457-0.612c-0.039,0.011-0.465,0.125-0.476,0.072
			c0.097-0.029,0.34-0.05,0.394-0.1c0.032-0.039-0.34-0.004-0.268-0.129l0.004-0.007c-0.086,0-0.118-0.032-0.154-0.054
			c0.2-0.064-0.004-0.354-0.143-0.29c0.011,0.014-0.007,0.057,0.014,0.064c-0.025-0.011-0.047-0.025-0.061-0.047
			c0.011-0.018,0.032-0.007,0.047-0.018c-0.018-0.018-0.061-0.018-0.021-0.086c-0.107,0.197-0.544,0.072-0.691,0
			c-0.508-0.243-0.354,0.093-0.734,0.179c0.007,0.186,0.265,0.186-0.089,0.326c-0.283,0.115-0.115,0.175-0.261,0.336
			c-0.082,0-0.093-0.011-0.122-0.021c0,0,0.004,0,0,0c-0.025,0-0.047-0.004-0.075-0.011c0.004,0.007,0.054,0.007,0.068,0.011
			c0.021-0.032-0.032-0.036-0.072-0.029c0.011-0.057,0.157-0.147,0.061-0.215c-0.297,0.007-0.261-0.208-0.633-0.193
			c0.104-0.104,0.118-0.165-0.036-0.14c0.2-0.136,0.587-0.254,0.744-0.397c-0.014-0.011-0.029-0.021-0.047-0.025
			c0.183,0.014,0.49-0.018,0.612-0.122c-0.086-0.007-0.197,0.004-0.183-0.043c0.082,0.029,0.19,0.029,0.297,0.011
			c-0.097,0.039-0.229,0.115-0.279,0.154c0.025,0,0.089-0.011,0.129-0.004c-0.025,0.018-0.05,0.036-0.014,0.032
			c0.147-0.007,0.387-0.032,0.53-0.075c-0.007-0.018-0.075-0.007-0.104-0.025c-0.007-0.004,0.014-0.018,0.011-0.029
			c-0.014-0.036-0.154-0.057-0.19-0.043c0-0.011,0-0.018,0-0.025c0.036-0.007,0.068-0.018,0.104-0.025
			c-0.014,0.007-0.004,0.021,0.032,0.021c-0.004-0.011,0.011-0.032-0.029-0.021c0.2-0.057,0.394-0.15,0.487-0.233
			c-0.05,0-0.107-0.021-0.157-0.029c0.072,0,0.132-0.004,0.168-0.004c-0.05,0.039,0.186-0.021,0.247,0.011c0,0-0.004,0-0.007,0
			c0.018,0.004,0.039,0.011,0.057,0.029c-0.025,0.007-0.05,0.014-0.075,0.018c0.004-0.004,0.15,0,0.183,0.018
			c-0.061-0.004-0.118,0.007-0.168,0.043c0,0,0.197,0.057,0.2-0.021c0.125,0.089-0.247,0.157-0.147,0.193
			c-0.132,0.061-0.379,0.018-0.472,0.143c-0.014,0.021,0.412-0.025,0.451-0.004c0.097,0.05,0.29,0.165,0.451,0.129
			c0.125-0.029-0.115-0.147-0.115-0.143c0.222-0.039,0.211,0.072,0.268-0.118c-0.075,0.011-0.097-0.064-0.15-0.057
			c0.014-0.036,0.032-0.014,0.043-0.039c0.1,0.014,0.308,0.072,0.326-0.057c0-0.007-0.276-0.1-0.293-0.111
			c0.025-0.014,0.036-0.018,0.068-0.025c-0.021-0.011-0.05-0.014-0.075-0.011c0.018-0.011,0.043-0.011,0.072-0.014
			c-0.021-0.021-0.047-0.029-0.072-0.021c0.004-0.007,0.004-0.011,0.007-0.018c-0.225-0.011-0.426-0.079-0.669-0.082
			c0.011,0,0.039-0.047,0.036-0.054c-0.036-0.097-0.598,0.093-0.465,0.036c-0.064,0,0.14-0.054,0.183-0.061
			c-0.118-0.007-0.225-0.007-0.347,0.018c0.043-0.014,0.082-0.021,0.122-0.043c-0.251,0.011-0.344,0.007-0.53,0.14
			c0.061,0,0.118-0.011,0.168-0.047c-0.011,0-0.021,0-0.032,0c0.064-0.029,0.175-0.021,0.236-0.043
			c-0.039,0.021-0.265,0.047-0.229,0.115c0,0,0.157,0.004,0.175,0.011c-0.05,0.043-0.115,0.05-0.186,0.018
			c-0.061,0.05,0.451,0.057,0.455,0.057c-0.064,0.014-0.315,0.243-0.401,0.161c-0.011-0.057,0.018-0.079,0.089-0.079
			c0.061-0.05-0.247,0.021-0.229,0.021c0.075-0.064-0.064-0.036,0.05-0.072c-0.025-0.011-0.104,0.004-0.111-0.014
			c0.039-0.011,0.075-0.021,0.111-0.036c0.082-0.061-0.268-0.054-0.365,0.018c-0.025,0.018,0.129,0.032,0.1,0.054
			c-0.025,0.014-0.05,0.029-0.075,0.043c0.029-0.007,0.047-0.007,0.075-0.014c-0.039,0.057-0.183,0.036-0.272,0.104
			c-0.057,0.007-0.047,0-0.025-0.011c-0.129,0.032-0.48-0.011-0.698-0.018c-0.082,0.068-0.225,0.079-0.276,0.064
			c-0.161-0.054-0.297-0.007-0.422,0.068c-0.111,0.093-0.229,0.179-0.336,0.276c0.025-0.021,0.043-0.054,0.072-0.075
			c0.079-0.072,0.168-0.143,0.265-0.2c0.029-0.025,0.061-0.05,0.089-0.075c-0.018,0-0.032,0.004-0.047,0.007
			c0.021-0.018,0.047-0.036,0.075-0.057c0.014,0,0.007,0.014,0.011,0.021c0.014-0.014,0.032-0.029,0.05-0.043
			c-0.014,0-0.018,0-0.032,0c0.021-0.014,0.039-0.007,0.057-0.018c0.032-0.025,0.061-0.054,0.093-0.075c-0.007,0-0.021,0-0.029,0
			c0.029-0.025,0.143-0.115,0.222-0.161c0.007-0.004,0.011-0.011,0.018-0.014c-0.004,0-0.011,0-0.014,0
			c0.018-0.014,0.039-0.029,0.061-0.043v0.004c0.036-0.025,0.079-0.047,0.115-0.072c0.043,0,0.079,0,0.122-0.007
			c0.011-0.007,0.032-0.014,0.05-0.014v0.004c0.186-0.043,0.458,0.039,0.63-0.061c0.018-0.011-0.222,0.004-0.104-0.054
			c-0.021,0-0.243,0.039-0.14,0.043c-0.011,0.011-0.029,0.014-0.05,0.018c0.014-0.004,0.029,0.007,0.043,0c-0.025,0-0.036,0-0.043,0
			l0,0c-0.115,0.018-0.222-0.029-0.329-0.018c-0.011,0.004-0.007,0.007,0,0.007c-0.021,0-0.043,0.004-0.064,0.011
			c0.029-0.018,0.061-0.036,0.089-0.057h0.004c0.061-0.004,0.075-0.011,0.039-0.021c-0.007,0-0.011,0.007-0.021,0.007
			c1.664-1.124,3.643-1.822,5.801-1.822c2.054,0,3.969,0.598,5.59,1.625c-0.147-0.068-0.286-0.115-0.419-0.129
			c0.029-0.097-0.301-0.036-0.208-0.021c-0.132,0.021-0.286-0.021-0.408,0.021c0.014,0.004,0.007,0.004,0.029,0.011
			c-0.043-0.007-0.089,0-0.14,0.014c0.036,0,0.036,0,0.061,0.004c-0.007,0-0.279-0.021-0.286,0.011c0,0,0.039,0.004,0.054,0.007
			c-0.007,0-0.05,0.007-0.064,0.014c0.082,0.004,0.111-0.011,0.197-0.011c-0.021,0.064-0.626,0.311-0.705,0.315
			c0.036,0.004,0.054,0.011,0.089,0.018c-0.118-0.014-0.644,0.089-0.369,0.276c-0.025,0.011-0.047,0.029-0.061,0.054
			c0.05-0.007,0.05-0.007,0.1-0.004c0.007,0.064-0.061,0.021-0.061,0.064c0.014,0.14,0.397,0.039,0.447,0.014
			c0.132-0.082,0.168,0.004,0.243,0.118c0.036,0.047,0.154,0.286,0.218,0.297c0.072,0.004,0.376-0.075,0.372-0.172
			c-0.261-0.047,0.15-0.215,0.147-0.236c-0.032-0.122-0.197-0.082-0.218-0.218c-0.025-0.129,0.394-0.093,0.369-0.175
			c0.036-0.05,0.336-0.208,0.404-0.025c0.004,0.014-0.372,0.15-0.401,0.147c0.039,0.05,0.032,0.104,0.107,0.125
			c-0.14,0.168,0.773,0.147,0.845,0.222c-0.19,0.072-0.401-0.068-0.58,0.025c-0.057,0.029,0.15,0.107,0.15,0.168
			c0-0.072-0.472,0.036-0.433,0.293c-0.047,0-0.097-0.004-0.143-0.004c0-0.004,0.004-0.018,0.011-0.029
			c-0.118-0.043-0.598,0.125-0.576-0.021c-0.125-0.021-0.272-0.011-0.404-0.025c-0.007,0.032,0-0.011,0.007-0.068
			c0.029,0.011,0.075-0.004,0.079,0.036c0.011-0.061-0.021-0.075-0.068-0.086c0.007-0.05,0.021-0.093,0.036-0.089
			c-0.014-0.032-0.057-0.057-0.064-0.129c-0.251,0.097-0.251,0.097-0.118,0.329c0.064,0.104-0.183,0.093-0.251,0.086
			c-0.229-0.018-0.204,0.19-0.397,0.229c-0.229,0.05-0.272,0.15-0.537,0.129c0,0.047,0.021,0.075,0.025,0.115
			c-0.039,0.007-0.379-0.061-0.379,0.014c0,0.111,0.583,0.172,0.455,0.383c0,0,0.007,0,0.007-0.004
			c0.014,0.293-0.068,0.218-0.279,0.243c-0.193-0.014-0.372-0.064-0.565-0.079c-0.222-0.014-0.129,0.129-0.129,0.236
			c0,0.075-0.15,0.644,0.021,0.659c0.168,0.011,0.225-0.05,0.336,0.111c0.079,0.129,0.34-0.072,0.48-0.014
			c0.118-0.047,0.247-0.143,0.329-0.258c-0.272-0.122,0.358-0.39,0.365-0.415c-0.118-0.304,0.336-0.064,0.476-0.136
			c0.283-0.143,0.322-0.061,0.53,0.161c-0.043-0.089,0.923,0.666,0.623,0.637c0.021,0.129,0.183-0.122,0.186-0.097
			c-0.036-0.211-0.147-0.183,0.143-0.107c-0.004-0.175-0.308-0.14-0.336-0.297c-0.204-0.018-0.519-0.286-0.54-0.48
			c-0.018-0.122,0.591,0.297,0.641,0.301c0.029,0.14,0.322,0.168,0.358,0.379c0.025,0.125,0.276,0.372,0.39,0.383
			c-0.068,0.129,0.029,0.204,0.175,0.222c-0.021-0.014-0.064-0.179-0.068-0.208c0.068,0.057,0.136,0.097,0.215,0.061
			c-0.129-0.107-0.19-0.215-0.301-0.322c-0.021-0.097,0.168,0.036,0.168,0.036c0.004-0.032,0-0.057-0.021-0.089
			c0.111-0.018,0.132-0.068,0.243,0.011c0.154,0.111,0.129-0.032,0.268-0.011c0,0.018,0.039,0.043,0.047,0.057
			c-0.061,0.021-0.404-0.036-0.372,0.097c0.021,0.093,0.168,0.032,0.021,0.183c0.132,0.068,0.208,0.147,0.319,0.24
			c-0.004,0.007-0.018,0.018-0.032,0.021c0.379,0.036,0.687,0.19,1.063,0.089c0.047,0.175,0.007,0.308-0.004,0.483
			c-0.004,0.05,0.011,0.222-0.032,0.258c-0.018,0.011,0.157,0.336,0.161,0.404c0.018,0.458,0.701,0.712,0.802,1.131
			c0.057,0.254,0.265,0.404,0.412,0.605c0.204,0.265,0.272,0.462,0.415,0.748c0.261,0.515,0.605,0.14,1.016,0
			c-0.029-0.183-0.029-0.372-0.068-0.555c0.039,0.179,0.089,0.351,0.118,0.53c-0.018,0.004-0.036,0.018-0.061,0.021
			c0.075,0.494,0.175,0.981,0.175,1.492C68.335,36.603,67.912,38.235,67.164,39.67z"/>
		<path style="fill:#010002;" d="M52.538,26.711c-0.175,0.029,0.157,0.029,0.208,0.014C52.799,26.607,52.47,26.725,52.538,26.711z"
			/>
		<rect x="0" y="62.292" style="fill:#010002;" width="38.594" height="25.088"/>
		<polygon style="fill:#010002;" points="13.507,89.595 9.649,93.456 28.946,93.456 25.084,89.595 		"/>
		<rect x="77.192" y="62.292" style="fill:#010002;" width="38.591" height="25.088"/>
		<polygon style="fill:#010002;" points="90.699,89.595 86.837,93.456 106.134,93.456 102.276,89.595 		"/>
		<path style="fill:#010002;" d="M33.799,43.002c0.458,0,0.916-0.175,1.267-0.523l0.39-0.39c0.698-0.698,0.698-1.832,0-2.53
			c-0.698-0.698-1.832-0.698-2.53,0l-0.39,0.39c-0.698,0.698-0.698,1.832,0,2.53C32.882,42.826,33.341,43.002,33.799,43.002z"/>
		<path style="fill:#010002;" d="M29.547,47.253c0.458,0,0.916-0.175,1.267-0.523l0.723-0.723c0.698-0.698,0.698-1.832,0-2.53
			c-0.698-0.698-1.832-0.698-2.53,0l-0.723,0.723c-0.698,0.698-0.698,1.832,0,2.53C28.631,47.078,29.089,47.253,29.547,47.253z"/>
		<path style="fill:#010002;" d="M21.036,55.764c0.458,0,0.916-0.175,1.267-0.523l0.727-0.727c0.698-0.698,0.698-1.832,0-2.53
			c-0.698-0.698-1.832-0.698-2.53,0l-0.727,0.727c-0.698,0.698-0.698,1.832,0,2.53C20.12,55.589,20.578,55.764,21.036,55.764z"/>
		<path style="fill:#010002;" d="M25.292,51.509c0.458,0,0.916-0.175,1.267-0.523l0.727-0.727c0.698-0.698,0.698-1.832,0-2.53
			c-0.698-0.698-1.832-0.698-2.53,0l-0.727,0.727c-0.698,0.698-0.698,1.832,0,2.53C24.376,51.333,24.834,51.509,25.292,51.509z"/>
		<path style="fill:#010002;" d="M17.118,59.679c0.458,0,0.916-0.175,1.267-0.523l0.39-0.39c0.698-0.698,0.698-1.832,0-2.53
			c-0.698-0.698-1.832-0.698-2.53,0l-0.39,0.39c-0.698,0.698-0.698,1.832,0,2.53C16.205,59.507,16.66,59.679,17.118,59.679z"/>
		<path style="fill:#010002;" d="M80.717,42.476c0.354,0.351,0.809,0.523,1.267,0.523c0.455,0,0.916-0.175,1.267-0.523
			c0.698-0.698,0.698-1.832,0-2.53l-0.39-0.39c-0.694-0.698-1.832-0.698-2.53,0c-0.694,0.698-0.694,1.832,0,2.53L80.717,42.476z"/>
		<path style="fill:#010002;" d="M92.757,54.515l0.727,0.727c0.351,0.351,0.809,0.523,1.267,0.523c0.458,0,0.916-0.175,1.267-0.523
			c0.698-0.698,0.698-1.832,0-2.53l-0.727-0.726c-0.698-0.698-1.836-0.698-2.53,0C92.062,52.682,92.055,53.813,92.757,54.515z"/>
		<path style="fill:#010002;" d="M88.501,50.26l0.727,0.727c0.351,0.351,0.812,0.523,1.267,0.523c0.462,0,0.92-0.175,1.267-0.523
			c0.698-0.698,0.698-1.832,0-2.53l-0.727-0.727c-0.694-0.698-1.832-0.698-2.527,0C87.807,48.427,87.8,49.562,88.501,50.26z"/>
		<path style="fill:#010002;" d="M84.25,46.008l0.719,0.723c0.354,0.351,0.812,0.523,1.267,0.523c0.455,0,0.916-0.175,1.267-0.523
			c0.698-0.698,0.698-1.832,0-2.53l-0.723-0.723c-0.698-0.698-1.836-0.698-2.53,0S83.548,45.306,84.25,46.008z"/>
		<path style="fill:#010002;" d="M97.008,58.767l0.39,0.39c0.351,0.351,0.812,0.523,1.267,0.523c0.462,0,0.916-0.175,1.267-0.523
			c0.694-0.698,0.694-1.832,0-2.53l-0.387-0.39c-0.698-0.698-1.836-0.698-2.53,0C96.314,56.934,96.307,58.069,97.008,58.767z"/>
	</g>
</g>
<g>
</g>
<g>
</g>
<g>
</g>
<g>
</g>
<g>
</g>
<g>
</g>
<g>
</g>
<g>
</g>
<g>
</g>
<g>
</g>
<g>
</g>
<g>
</g>
<g>
</g>
<g>
</g>
<g>
</g>
</svg>
