<?xml version="1.0" encoding="iso-8859-1"?>
<!-- Generator: Adobe Illustrator 18.1.1, SVG Export Plug-In . SVG Version: 6.00 Build 0)  -->
<svg version="1.1" id="Capa_1" xmlns="http://www.w3.org/2000/svg" xmlns:xlink="http://www.w3.org/1999/xlink" x="0px" y="0px"
	 viewBox="0 0 71.577 71.577" style="enable-background:new 0 0 71.577 71.577;" xml:space="preserve">
<g>
	<g>
		<polygon style="fill:#010002;" points="25.052,57.523 17.894,64.681 53.683,64.681 46.525,57.523 		"/>
		<path style="fill:#010002;" d="M0,6.896v46.525h71.577V6.896H0z M47.384,41.941c0,0.866-0.709,1.571-1.571,1.571H30.08
			c-0.859,0-1.568-0.705-1.568-1.571V30.928c0-0.866,0.709-1.571,1.568-1.571h1.446h2.756h0.014v-6.131
			c0-2.026-1.646-3.672-3.668-3.672c-2.018,0-3.665,1.646-3.665,3.672v2.552h-2.759v-2.552c0-3.543,2.881-6.424,6.424-6.424
			s6.424,2.881,6.424,6.424v6.131h4.57h2.756h1.446c0.859,0,1.568,0.709,1.568,1.571L47.384,41.941L47.384,41.941z"/>
	</g>
</g>
<g>
</g>
<g>
</g>
<g>
</g>
<g>
</g>
<g>
</g>
<g>
</g>
<g>
</g>
<g>
</g>
<g>
</g>
<g>
</g>
<g>
</g>
<g>
</g>
<g>
</g>
<g>
</g>
<g>
</g>
</svg>
