<?xml version="1.0" encoding="UTF-8" standalone="no"?>
<!-- Generator: Adobe Illustrator 18.1.0, SVG Export Plug-In . SVG Version: 6.00 Build 0)  -->

<svg
   xmlns:dc="http://purl.org/dc/elements/1.1/"
   xmlns:cc="http://creativecommons.org/ns#"
   xmlns:rdf="http://www.w3.org/1999/02/22-rdf-syntax-ns#"
   xmlns:svg="http://www.w3.org/2000/svg"
   xmlns="http://www.w3.org/2000/svg"
   xmlns:sodipodi="http://sodipodi.sourceforge.net/DTD/sodipodi-0.dtd"
   xmlns:inkscape="http://www.inkscape.org/namespaces/inkscape"
   version="1.1"
   id="Layer_1"
   x="0px"
   y="0px"
   viewBox="0 0 226 196.9"
   enable-background="new 0 0 226 196.9"
   xml:space="preserve"
   inkscape:version="0.48.4 r9939"
   width="100%"
   height="100%"
   sodipodi:docname="wisdompetlogo.svg"><metadata
     id="metadata15"><rdf:RDF><cc:Work
         rdf:about=""><dc:format>image/svg+xml</dc:format><dc:type
           rdf:resource="http://purl.org/dc/dcmitype/StillImage" /><dc:title></dc:title></cc:Work></rdf:RDF></metadata><defs
     id="defs13" /><sodipodi:namedview
     pagecolor="#ffffff"
     bordercolor="#666666"
     borderopacity="1"
     objecttolerance="10"
     gridtolerance="10"
     guidetolerance="10"
     inkscape:pageopacity="0"
     inkscape:pageshadow="2"
     inkscape:window-width="1855"
     inkscape:window-height="1056"
     id="namedview11"
     showgrid="false"
     inkscape:zoom="1.198578"
     inkscape:cx="14.55"
     inkscape:cy="98.45"
     inkscape:window-x="65"
     inkscape:window-y="24"
     inkscape:window-maximized="1"
     inkscape:current-layer="Layer_1" /><g
     inkscape:groupmode="layer"
     id="layer1"
     inkscape:label="Layer"
     style="display:inline" /><g
     style="display:inline"
     id="g3115"
     transform="matrix(0.37919525,0,0,0.37919525,-20.996205,-92.83416)"><path
       style="fill:#000000;fill-opacity:0"
       d="m 104.78575,506.64792 0,-252.71428 258.61883,0 258.61884,0 0,252.71428 0,252.71428 -258.61884,0 -258.61883,0 z m 259.79974,236.18157 c 0,-1.299 2.12564,-2.36182 4.72363,-2.36182 2.598,0 4.72364,-1.08249 4.72364,-2.40555 0,-2.436 29.53944,-33.02168 31.89212,-33.02168 2.34785,0 27.15327,-25.84426 27.15327,-28.29044 0,-1.32725 1.66324,-2.41317 3.69606,-2.41317 2.03283,0 8.87216,-5.31408 15.19847,-11.80907 6.32631,-6.495 12.12249,-11.80908 12.88037,-11.80908 2.4232,0 31.99413,-30.52066 31.99413,-33.02168 0,-1.32307 1.13183,-2.40556 2.51515,-2.40556 1.38333,0 7.69125,-5.31408 14.01756,-11.80908 6.32631,-6.49499 12.12249,-11.80907 12.88038,-11.80907 1.74214,0 31.99412,-30.16578 31.99412,-31.90294 0,-0.70774 4.90793,-6.19471 10.90649,-12.19327 l 10.90646,-10.90647 -1.45218,-19.14452 c -0.79872,-10.5295 -2.10176,-26.17981 -2.89564,-34.7785 l -1.44344,-15.63398 -37.71419,-35.14506 C 515.81908,412.63877 484.6292,383.10533 467.25101,366.33868 l -31.59668,-30.4848 -10.1449,9.18694 -10.1449,9.18694 -0.74732,-6.45347 c -0.41103,-3.54941 -1.73955,-6.45347 -2.95227,-6.45347 -1.21272,0 -2.20495,-6.7014 -2.20495,-14.892 l 0,-14.892 -26.79822,-26.43977 c -14.73903,-14.54188 -27.56374,-26.43978 -28.49937,-26.43978 -4.4135,0 -24.40761,18.02006 -89.05397,80.2615 -38.4749,37.04359 -85.34014,81.52926 -104.14497,98.85703 l -34.1906,31.50505 -0.46947,14.55036 c -0.32071,9.93985 0.66228,16.04711 3.10223,19.27399 2.27815,3.01289 3.5989,10.06967 3.64681,19.48498 0.0418,8.21628 1.12232,14.76134 2.43693,14.76134 1.29899,0 2.36181,1.69924 2.36181,3.77605 0,2.07682 3.18845,6.75451 7.08545,10.39485 3.897,3.64034 7.08545,7.30351 7.08545,8.14037 0,1.9532 11.12178,13.11597 13.0678,13.11597 0.81038,0 5.55805,4.25127 10.55036,9.44726 4.9923,5.196 9.71476,9.44727 10.49434,9.44727 1.80184,0 27.29471,25.42019 27.29471,27.2169 0,2.35645 11.50127,12.93396 14.06354,12.93396 1.35804,0 2.46917,1.06282 2.46917,2.36182 0,1.299 1.60941,2.36181 3.57646,2.36181 3.29646,0 43.65986,38.33586 43.65986,41.46673 0,1.79326 6.33324,8.1314 8.12511,8.1314 2.43116,0 65.62347,55.74982 68.09287,55.97309 14.53462,1.31412 -1.61794,-1.65133 -10.08714,-1.65133 -3.897,0 7.08545,1.06282 7.08545,2.36182 0,1.299 3.18845,2.36182 7.08545,2.36182 3.89699,0 7.08544,-1.06282 7.08544,-2.36182 z"
       id="path3131"
       inkscape:connector-curvature="0"
       sodipodi:nodetypes="cccccccccsssssssssssssscsscsscccssscsssscsssssssssssssssssssss" /><path
       style="fill:#cccccc"
       d="m 350.4146,742.82949 c 0,-1.299 -3.18845,-2.36182 -7.08545,-2.36182 -3.897,0 -7.08545,-1.07516 -7.08545,-2.38928 0,-2.47948 -48.48912,-51.93248 -50.92028,-51.93248 -1.79187,0 -8.12511,-6.33814 -8.12511,-8.1314 0,-3.13087 -40.3634,-41.46673 -43.65986,-41.46673 -1.96705,0 -3.57646,-1.06281 -3.57646,-2.36181 0,-1.299 -1.11113,-2.36182 -2.46917,-2.36182 -2.56227,0 -14.06354,-10.57751 -14.06354,-12.93396 0,-1.79671 -25.49287,-27.2169 -27.29471,-27.2169 -0.77958,0 -5.50204,-4.25127 -10.49434,-9.44727 -4.99231,-5.19599 -9.73998,-9.44726 -10.55036,-9.44726 -1.94602,0 -13.0678,-11.16277 -13.0678,-13.11597 0,-0.83686 -3.18845,-4.50003 -7.08545,-8.14037 -3.897,-3.64034 -7.08545,-8.31803 -7.08545,-10.39485 0,-2.07681 -1.06282,-3.77605 -2.36181,-3.77605 -1.32462,0 -2.36182,-6.53436 -2.36182,-14.87943 0,-8.1837 -0.79711,-15.93147 -1.77136,-17.21726 -0.97425,-1.28582 1.15138,0.8528 4.72363,4.75249 4.71086,5.14266 6.49499,9.56483 6.49499,16.09851 0,7.51943 1.74622,10.75441 10.56602,19.57421 5.81131,5.8113 11.65681,10.56601 12.98999,10.56601 1.33318,0 2.42397,1.09824 2.42397,2.44053 0,2.53626 15.34523,18.81581 17.73593,18.81581 0.74837,0 9.77227,8.50254 20.05312,18.89453 10.28085,10.39199 19.80074,18.89452 21.15531,18.89452 1.35457,0 2.46285,1.11112 2.46285,2.46916 0,3.25936 10.88182,14.06355 14.16458,14.06355 1.41361,0 10.98181,8.50254 21.26266,18.89453 10.28085,10.39199 19.34524,18.89452 20.1431,18.89452 1.84413,0 8.19869,6.29753 8.19869,8.12512 0,3.14299 49.83504,50.92028 53.11339,50.92028 1.96361,0 3.57019,1.06281 3.57019,2.36181 0,1.299 2.69785,2.36182 5.99525,2.36182 4.41391,0 11.55403,-5.60665 27.07017,-21.25634 11.5912,-11.69099 21.69547,-21.25635 22.4539,-21.25635 1.84087,0 12.97334,-11.19939 12.97334,-13.05132 0,-2.4517 6.58602,-8.20502 9.39256,-8.20502 1.4545,0 9.98165,-7.43972 18.94923,-16.53271 8.96758,-9.09299 16.92283,-16.53271 17.67833,-16.53271 1.7699,0 17.74891,-15.94724 17.74891,-17.71361 0,-1.78988 15.99081,-17.71362 17.78822,-17.71362 0.77714,0 6.58907,-5.31409 12.91538,-11.80908 6.32631,-6.49499 12.13825,-11.80908 12.91538,-11.80908 1.82871,0 17.78823,-15.9393 17.78823,-17.76569 0,-0.76474 6.3769,-7.64962 14.17089,-15.29973 13.98559,-13.72741 14.17397,-14.08858 14.40632,-27.62054 0.12943,-7.54118 0.99258,-16.36828 1.91796,-19.61577 1.52982,-5.3686 1.82767,-5.04704 3.28132,3.54272 0.8793,5.196 1.61045,15.5305 1.62474,22.96554 0.0248,12.88633 -0.47085,14.01516 -10.60217,24.14647 -5.84549,5.8455 -10.62817,11.20722 -10.62817,11.91496 0,1.73716 -30.25198,31.90294 -31.99412,31.90294 -0.75789,0 -6.55407,5.31408 -12.88038,11.80907 -6.32631,6.495 -12.63423,11.80908 -14.01756,11.80908 -1.38332,0 -2.51515,1.08249 -2.51515,2.40556 0,2.50102 -29.57093,33.02168 -31.99413,33.02168 -0.75788,0 -6.55406,5.31408 -12.88037,11.80908 -6.32631,6.49499 -13.16564,11.80907 -15.19847,11.80907 -2.03282,0 -3.69606,1.08592 -3.69606,2.41317 0,2.44618 -24.80542,28.29044 -27.15327,28.29044 -2.35268,0 -31.89212,30.58568 -31.89212,33.02168 0,1.32306 -2.12564,2.40555 -4.72364,2.40555 -2.59799,0 -4.72363,1.06282 -4.72363,2.36182 0,1.299 -3.18845,2.36182 -7.08544,2.36182 -3.897,0 -7.08545,-1.06282 -7.08545,-2.36182 z m -223.64065,-256.257 c 0.0132,-7.794 0.45418,-10.69771 0.97982,-6.4527 0.52565,4.24501 0.51481,10.62192 -0.0241,14.1709 -0.5389,3.54898 -0.96898,0.0758 -0.95572,-7.7182 z m 6.35359,-23.61816 c 4.40664,-4.5465 8.54348,-8.26636 9.19298,-8.26636 0.6495,0 -2.42453,3.71986 -6.83116,8.26636 -4.40664,4.54649 -8.54348,8.26635 -9.19298,8.26635 -0.6495,0 2.42452,-3.71986 6.83116,-8.26635 z m 424.99972,-10.03772 -8.13922,-8.85681 8.85681,8.13922 c 4.87124,4.47656 8.85681,8.46213 8.85681,8.8568 0,1.80353 -1.99862,0.10451 -9.5744,-8.13921 z M 182.92249,416.30847 c 0.54125,-0.32475 4.17254,-3.2475 8.06954,-6.49499 l 7.08545,-5.90454 -5.72579,6.49499 c -3.14918,3.57225 -6.78047,6.49499 -8.06954,6.49499 -1.28906,0 -1.90091,-0.2657 -1.35966,-0.59045 z m 322.19105,-12.7999 c -5.196,-4.65856 -7.32163,-7.36895 -4.72364,-6.0231 4.37751,2.26771 17.42189,14.81213 15.17304,14.59151 -0.55118,-0.0541 -5.25341,-3.90986 -10.4494,-8.56841 z M 402.37455,354.944 c 0,-5.67415 1.19231,-11.50896 2.64962,-12.96625 4.02678,-4.02679 9.15946,-0.86649 9.15946,5.63969 0,3.7761 0.94881,5.20484 2.72674,4.10602 5.59157,-3.45579 -0.68923,3.67753 -7.5218,8.54274 l -7.01402,4.99443 0,-10.31663 z m -146.43259,-7.71864 c 4.40664,-4.5465 8.54348,-8.26635 9.19298,-8.26635 0.6495,0 -2.42452,3.71985 -6.83116,8.26635 -4.40664,4.5465 -8.54348,8.26636 -9.19298,8.26636 -0.6495,0 2.42453,-3.71986 6.83116,-8.26636 z m 182.81634,-6.49499 -4.49924,-5.31409 5.31409,4.49923 c 4.99391,4.22817 6.38927,6.12894 4.49923,6.12894 -0.44818,0 -2.83952,-2.39134 -5.31408,-5.31408 z M 325.61553,279.91361 c 5.07376,-5.19599 9.75642,-9.44726 10.40592,-9.44726 0.6495,0 -2.97035,4.25127 -8.0441,9.44726 -5.07376,5.196 -9.75642,9.44727 -10.40592,9.44727 -0.6495,0 2.97035,-4.25127 8.0441,-9.44727 z m 40.03975,-10.03771 -9.33614,-10.03772 10.03771,9.33613 c 5.52075,5.13488 10.03772,9.65185 10.03772,10.03772 0,1.7869 -2.05679,-0.001 -10.73929,-9.33613 z"
       id="path3129"
       inkscape:connector-curvature="0" /><path
       style="fill:#bfbfbf"
       d="m 350.4146,731.02041 c 0,-1.299 -1.60658,-2.36181 -3.57019,-2.36181 -3.27835,0 -53.11339,-47.77729 -53.11339,-50.92028 0,-1.82759 -6.35456,-8.12512 -8.19869,-8.12512 -0.79786,0 -9.86225,-8.50253 -20.1431,-18.89452 -10.28085,-10.39199 -19.84905,-18.89453 -21.26266,-18.89453 -3.28276,0 -14.16458,-10.80419 -14.16458,-14.06355 0,-1.35804 -1.10828,-2.46916 -2.46285,-2.46916 -1.35457,0 -10.87446,-8.50253 -21.15531,-18.89452 -10.28085,-10.39199 -19.30475,-18.89453 -20.05312,-18.89453 -2.3907,0 -17.73593,-16.27955 -17.73593,-18.81581 0,-1.34229 -1.09079,-2.44053 -2.42397,-2.44053 -1.33318,0 -7.2408,-4.81683 -13.12803,-10.70406 -9.37287,-9.37286 -10.61347,-11.78855 -9.97557,-19.42428 l 0.7285,-8.7202 41.55694,38.90926 c 22.85632,21.40008 68.85382,65.286 102.21667,97.52424 34.54779,33.38325 62.17298,58.29192 64.17511,57.86448 1.93346,-0.41277 35.64724,-31.72242 74.91952,-69.57696 39.27227,-37.85455 87.8778,-84.29233 108.01228,-103.1951 l 36.60815,-34.36867 0.70876,12.87034 0.70875,12.87033 -14.28919,14.02543 c -7.85906,7.71398 -14.2892,14.6511 -14.2892,15.41584 0,1.82639 -15.95952,17.76569 -17.78823,17.76569 -0.77713,0 -6.58907,5.31409 -12.91538,11.80908 -6.32631,6.49499 -12.13824,11.80908 -12.91538,11.80908 -1.79741,0 -17.78822,15.92374 -17.78822,17.71362 0,1.76637 -15.97901,17.71361 -17.74891,17.71361 -0.7555,0 -8.71075,7.43972 -17.67833,16.53271 -8.96758,9.09299 -17.49473,16.53271 -18.94923,16.53271 -2.80654,0 -9.39256,5.75332 -9.39256,8.20502 0,1.85193 -11.13247,13.05132 -12.97334,13.05132 -0.75843,0 -10.8627,9.56536 -22.4539,21.25635 -15.51614,15.64969 -22.65626,21.25634 -27.07017,21.25634 -3.2974,0 -5.99525,-1.06282 -5.99525,-2.36182 z m -5.47249,-163.85571 -6.65341,-5.44417 5.96749,-3.91004 c 3.28212,-2.15052 24.66387,-22.11599 47.51503,-44.3677 l 41.54755,-40.45764 5.9249,5.56616 5.9249,5.56616 -45.60562,44.21081 c -25.0831,24.31593 -46.13704,44.22651 -46.78654,44.24571 -0.6495,0.0189 -4.17493,-2.41498 -7.8343,-5.40929 z m -82.09744,-78.42492 -5.52013,-5.8759 18.79369,-18.71366 c 10.33653,-10.29252 42.70708,-40.97708 71.93455,-68.18792 l 53.14086,-49.47426 0.73455,9.39508 c 0.65538,8.38273 1.15483,9.05869 4.63511,6.2732 2.14531,-1.71704 -7.88337,8.31391 -22.28595,22.29099 -14.40262,13.97708 -30.30503,28.67621 -35.33875,32.66472 -5.03369,3.98852 -25.22204,23.05851 -44.86299,42.37775 l -35.71081,35.12592 -5.52013,-5.87592 z"
       id="path3127"
       inkscape:connector-curvature="0" /><path
       style="fill:#b6b6b6"
       d="m 350.03076,699.34561 0.79706,-12.78671 -25.59613,-25.32457 -25.59613,-25.32457 25.68068,24.18582 25.68069,24.18585 20.37472,-19.73366 20.37473,-19.73363 -19.48499,20.12477 c -19.47107,20.11039 -19.48498,20.13379 -19.48498,32.76415 0,11.69781 0.30791,12.39792 4.13318,9.39792 3.74598,-2.93779 3.82952,-2.85425 0.89173,0.89173 -6.03137,7.69057 -8.6101,4.82094 -7.77056,-8.6471 z m 68.8765,-52.16966 c 18.80187,-18.83548 34.71664,-34.24632 35.36613,-34.24632 0.6495,0 -14.20244,15.41084 -33.00432,34.24632 -18.80187,18.83548 -34.71663,34.24633 -35.36613,34.24633 -0.6495,0 14.20244,-15.41085 33.00432,-34.24633 z m -159.46285,-20.66588 -25.9397,-26.57043 26.57043,25.9397 c 24.67966,24.09381 27.64291,27.20115 25.9397,27.20115 -0.34691,0 -12.3036,-11.95669 -26.57043,-26.57042 z m -4.83193,-33.06542 -6.93687,-7.6759 7.6759,6.93686 c 4.22175,3.81528 7.6759,7.26943 7.6759,7.6759 0,1.82465 -1.9488,0.21823 -8.41493,-6.93686 z m 220.70132,-0.029 c 4.20098,-5.35462 49.87517,-47.49749 49.87517,-46.0192 0,0.61447 -11.95669,12.15664 -26.57043,25.64932 -14.61373,13.49265 -25.10088,22.65904 -23.30474,20.36976 z m -23.34112,-7.64685 c 3.05087,-3.2475 6.07844,-5.90454 6.72794,-5.90454 0.6495,0 -1.31525,2.65704 -4.36612,5.90454 -3.05088,3.24749 -6.07845,5.90454 -6.72794,5.90454 -0.6495,0 1.31524,-2.65705 4.36612,-5.90454 z M 189.81112,560.51418 c -22.44749,-21.66156 -23.47214,-22.91037 -5.90454,-7.19614 20.66767,18.48723 36.19159,33.74758 34.09775,33.51884 -0.56778,-0.062 -13.25472,-11.90724 -28.19321,-26.3227 z m 47.05756,15.21685 -5.72578,-6.49499 6.49499,5.72577 c 3.57225,3.1492 6.49499,6.07194 6.49499,6.49499 0,1.85233 -1.91259,0.34478 -7.2642,-5.72577 z m 107.64138,-6.78972 c -4.2468,-3.61384 -5.11519,-5.0508 -2.16758,-3.58673 4.32932,2.15032 12.44967,9.92478 10.13266,9.70106 -0.48379,-0.0468 -4.06809,-2.79818 -7.96508,-6.11433 z m 41.28957,-51.07477 c 22.99471,-23.58232 26.02218,-26.46258 26.02218,-24.75685 0,0.34794 -11.42528,11.77322 -25.38952,25.38951 l -25.38952,24.75686 24.75686,-25.38952 z m 14.2131,8.85681 c 4.40663,-4.54649 8.54347,-8.26635 9.19297,-8.26635 0.6495,0 -2.42452,3.71986 -6.83115,8.26635 -4.40663,4.5465 -8.54347,8.26636 -9.19297,8.26636 -0.6495,0 2.42452,-3.71986 6.83115,-8.26636 z m -216.10615,-0.20689 -7.08545,-6.08801 7.6759,5.07965 c 4.22175,2.79382 7.67591,5.5387 7.67591,6.09972 0,1.76794 -1.00015,1.15193 -8.26636,-5.09136 z m 373.1669,-10.42128 c 7.71268,-7.79399 14.55443,-14.17089 15.20393,-14.17089 0.6495,0 -5.12943,6.3769 -12.84211,14.17089 -7.71267,7.79399 -14.55443,14.1709 -15.20393,14.1709 -0.6495,0 5.12944,-6.37691 12.84211,-14.1709 z m -33.06542,2.36182 c 2.35117,-2.598 4.80625,-4.72363 5.45575,-4.72363 0.6495,0 -0.74277,2.12563 -3.09393,4.72363 -2.35117,2.598 -4.80625,4.72363 -5.45575,4.72363 -0.6495,0 0.74277,-2.12563 3.09393,-4.72363 z m -357.99385,-8.85681 -5.72579,-6.49499 6.495,5.72577 c 3.57224,3.1492 6.49499,6.07194 6.49499,6.49499 0,1.85233 -1.9126,0.34478 -7.2642,-5.72577 z m 94.57539,-20.74678 -5.62302,-5.98543 16.40656,-15.86137 16.40655,-15.86136 -15.20344,15.88501 -15.20343,15.885 5.60081,5.96179 c 3.08044,3.27898 5.0694,5.96179 4.4199,5.96179 -0.6495,0 -3.71127,-2.69344 -6.80393,-5.98543 z m -128.86737,-11.13773 -4.49923,-5.31409 5.31409,4.49923 c 2.92274,2.47458 5.31408,4.86592 5.31408,5.31409 0,1.89005 -1.90077,0.4947 -6.12894,-4.49923 z m 307.31086,0.64615 c -2.32343,-2.56737 -5.30941,-3.99738 -6.63552,-3.17781 -1.43381,0.88615 -1.68352,0.31293 -0.61608,-1.41422 1.32004,-2.13588 3.29138,-1.49858 7.45037,2.40859 3.11044,2.92212 5.65537,5.6591 5.65537,6.08216 0,1.75024 -1.86734,0.50663 -5.85414,-3.89872 z M 569.7622,464.72569 c -2.93779,-3.74597 -2.85426,-3.82951 0.89173,-0.89171 2.27324,1.7828 4.13317,3.64273 4.13317,4.13317 0,1.94386 -1.9395,0.69273 -5.0249,-3.24146 z M 316.16827,447.9699 c 9.09299,-9.49089 21.84679,-21.61458 28.34179,-26.94154 13.5145,-11.08408 11.32975,-8.83178 -21.25634,21.91364 -19.98255,18.85381 -21.07324,19.62776 -7.08545,5.0279 z m 1.18091,-24.80652 c 7.14449,-7.54804 19.36689,-19.14378 27.16088,-25.76833 16.24903,-13.81094 11.30899,-8.68907 -18.89453,19.59004 -13.77532,12.89763 -16.6846,15.07203 -8.26635,6.17829 z m -141.70895,-0.0707 c 0,-0.49045 1.85993,-2.35038 4.13317,-4.13318 3.74598,-2.93779 3.82951,-2.85425 0.89172,0.89172 -3.0854,3.93419 -5.02489,5.18532 -5.02489,3.24147 z m 211.38251,-41.62096 c 7.71268,-7.79399 14.55443,-14.1709 15.20393,-14.1709 0.6495,0 -5.12944,6.37691 -12.84211,14.1709 -7.71268,7.79399 -14.55443,14.17089 -15.20393,14.17089 -0.6495,0 5.12944,-6.3769 12.84211,-14.17089 z M 239.40925,363.75807 c 4.40664,-4.5465 8.54348,-8.26635 9.19298,-8.26635 0.6495,0 -2.42453,3.71985 -6.83116,8.26635 -4.40664,4.5465 -8.54348,8.26636 -9.19298,8.26636 -0.6495,0 2.42453,-3.71986 6.83116,-8.26636 z m 149.97531,-8.26635 c 7.71267,-7.794 14.55443,-14.1709 15.20393,-14.1709 0.6495,0 -5.12944,6.3769 -12.84211,14.1709 -7.71268,7.79399 -14.55444,14.17089 -15.20393,14.17089 -0.6495,0 5.12943,-6.3769 12.84211,-14.17089 z m 62.46098,-1.77137 -8.13922,-8.85681 8.85681,8.13922 c 4.87125,4.47656 8.85681,8.46213 8.85681,8.8568 0,1.80353 -1.99861,0.10452 -9.5744,-8.13921 z m -25.85284,-8.56761 c 0,-0.49045 1.85993,-2.35038 4.13318,-4.13318 3.74598,-2.93779 3.82952,-2.85426 0.89173,0.89171 -3.08541,3.93419 -5.02491,5.18532 -5.02491,3.24147 z M 407.83003,323.6072 c 0.0142,-7.79399 0.45418,-10.6977 0.97983,-6.45269 0.52564,4.24501 0.5148,10.62191 -0.0241,14.17089 -0.53892,3.54898 -0.96899,0.0758 -0.95574,-7.7182 z m -99.92812,-25.97997 c 4.40664,-4.54649 8.54348,-8.26635 9.19298,-8.26635 0.6495,0 -2.42453,3.71986 -6.83116,8.26635 -4.40664,4.5465 -8.54348,8.26636 -9.19298,8.26636 -0.6495,0 2.42453,-3.71986 6.83116,-8.26636 z m 75.45097,-10.03772 -8.13922,-8.85681 8.85681,8.13922 c 4.87125,4.47656 8.85681,8.46213 8.85681,8.85681 0,1.80352 -1.99861,0.10451 -9.5744,-8.13922 z"
       id="path3125"
       inkscape:connector-curvature="0" /><path
       style="fill:#949494"
       d="m 341.1902,558.01741 c 0.55559,-0.32475 5.2497,-4.31031 10.43136,-8.85681 l 9.42121,-8.26635 -8.13922,8.85681 c -4.47656,4.87124 -9.17067,8.85681 -10.43134,8.85681 -1.26069,0 -1.83758,-0.26571 -1.28201,-0.59046 z m 42.28982,-14.76135 c 4.40663,-4.54649 8.54347,-8.26635 9.19297,-8.26635 0.6495,0 -2.42453,3.71986 -6.83115,8.26635 -4.40663,4.5465 -8.54347,8.26636 -9.19297,8.26636 -0.6495,0 2.42452,-3.71986 6.83115,-8.26636 z m -88.00987,-21.36085 -27.72305,-26.5905 52.49323,-49.24061 c 28.87128,-27.08234 66.14146,-62.32512 82.82266,-78.31729 16.68118,-15.99218 31.2183,-28.74598 32.30468,-28.34179 1.08641,0.40419 20.13852,17.70894 42.33801,38.455 l 40.36275,37.7201 -27.48932,26.04892 c -15.11914,14.32691 -28.50308,26.43873 -29.74209,26.91517 -1.23901,0.47643 -7.87951,-4.69064 -14.75669,-11.48237 l -12.50393,-12.34863 -41.23234,39.82417 c -22.67778,21.90329 -47.514,45.25211 -55.19159,51.88626 l -13.95927,12.0621 -27.72305,-26.59053 z m 124.61802,-38.86545 c 5.07374,-5.19599 9.75642,-9.44726 10.40592,-9.44726 0.6495,0 -2.97036,4.25127 -8.04411,9.44726 -5.07375,5.196 -9.75642,9.44727 -10.40592,9.44727 -0.6495,0 2.97036,-4.25127 8.04411,-9.44727 z M 213.42928,442.45874 186.2684,416.66806 221.69563,382.33715 c 80.92148,-78.41729 129.2491,-123.89004 130.95164,-123.2159 0.99584,0.39431 13.73757,12.02887 28.31498,25.85457 l 26.5044,25.13764 -30.29738,29.45725 c -16.66358,16.20148 -36.6743,34.80189 -44.46829,41.33423 -7.79399,6.53234 -21.61062,19.50947 -30.70361,28.83806 -9.09299,9.32859 -26.62947,26.30878 -38.96996,37.73375 l -22.43725,20.77267 -27.16088,-25.79068 z m 80.30174,1.60106 c 4.40663,-4.54649 8.54347,-8.26635 9.19297,-8.26635 0.6495,0 -2.42452,3.71986 -6.83116,8.26635 -4.40663,4.5465 -8.54347,8.26636 -9.19297,8.26636 -0.6495,0 2.42452,-3.71986 6.83116,-8.26636 z m 70.85447,-66.13084 c 4.40663,-4.54649 8.54347,-8.26635 9.19297,-8.26635 0.6495,0 -2.42452,3.71986 -6.83115,8.26635 -4.40663,4.5465 -8.54347,8.26636 -9.19297,8.26636 -0.6495,0 2.42452,-3.71986 6.83115,-8.26636 z"
       id="path3123"
       inkscape:connector-curvature="0" /><path
       style="fill:#666666"
       d="m 316.35987,680.93516 -28.53339,-28.82894 29.5227,28.22384 c 16.23748,15.5231 29.96553,28.49613 30.50679,28.82894 0.54124,0.33278 0.0961,0.60507 -0.98932,0.60507 -1.08537,0 -14.81342,-12.973 -30.50678,-28.82891 z m -23.95834,-52.06328 -6.93687,-7.6759 7.6759,6.93687 c 7.15502,6.46613 8.76152,8.41493 6.93687,8.41493 -0.40647,0 -3.86062,-3.45415 -7.6759,-7.6759 z m -22.41581,-20.07543 -8.13922,-8.85681 8.85681,8.13922 c 4.87125,4.47656 8.85681,8.46212 8.85681,8.85681 0,1.80353 -1.9986,0.10463 -9.5744,-8.13922 z m 158.3688,1.03233 c 0,-0.40647 3.45416,-3.86063 7.6759,-7.67591 l 7.6759,-6.93686 -6.93686,7.6759 c -6.46613,7.15503 -8.41494,8.76151 -8.41494,6.93687 z m -203.24331,-17.56504 -8.13921,-8.85681 8.85681,8.13922 c 8.24373,7.57578 9.94274,9.5744 8.13921,9.5744 -0.39467,0 -4.38024,-3.98557 -8.85681,-8.85681 z m 141.8361,-32.47497 c 4.40663,-4.54649 8.54347,-8.26635 9.19297,-8.26635 0.64949,0 -2.42453,3.71986 -6.83116,8.26635 -4.40662,4.5465 -8.54346,8.26636 -9.19296,8.26636 -0.6495,0 2.42452,-3.71986 6.83115,-8.26636 z m -146.61134,-0.59045 -5.72578,-6.49499 6.49499,5.72577 c 6.07055,5.35161 7.57809,7.26421 5.72578,7.26421 -0.42306,0 -3.34581,-2.92274 -6.49499,-6.49499 z m 109.57816,-3.49161 -6.66041,-7.04769 13.9194,-12.14873 c 7.65569,-6.68181 32.44866,-30.04069 55.09552,-51.90858 l 41.17609,-39.75984 13.56131,12.59896 13.56131,12.59895 -6.60647,6.98734 -6.60647,6.98734 -7.09242,-6.79498 -7.09244,-6.79498 -37.2443,36.42795 c -20.48436,20.0354 -42.21823,40.80963 -48.2975,46.16495 l -11.05321,9.73699 -6.66041,-7.04768 z m -130.78289,-15.40292 -8.13921,-8.85681 8.85681,8.13922 c 8.24372,7.57579 9.94274,9.5744 8.13921,9.5744 -0.39468,0 -4.38024,-3.98556 -8.85681,-8.85681 z m 300.27457,1.18091 c 0.54125,-0.32475 4.17255,-3.24749 8.06954,-6.49499 l 7.08545,-5.90454 -5.72577,6.49499 c -3.1492,3.57225 -6.78049,6.495 -8.06955,6.495 -1.28906,0 -1.90091,-0.26571 -1.35967,-0.59046 z m -345.14907,-15.3518 -8.13921,-8.85681 8.85681,8.13922 c 4.87124,4.47656 8.85681,8.46212 8.85681,8.85681 0,1.80353 -1.99861,0.10463 -9.57441,-8.13922 z m 132.26169,-11.80908 -8.13922,-8.85681 8.85681,8.13922 c 8.24373,7.57578 9.94275,9.5744 8.13922,9.5744 -0.39468,0 -4.38025,-3.98556 -8.85681,-8.85681 z m -153.69215,-9.44726 c -2.9378,-3.74598 -2.85426,-3.82952 0.89171,-0.89173 2.27325,1.78282 4.13318,3.64275 4.13318,4.13318 0,1.94387 -1.93949,0.69274 -5.02489,-3.24145 z m 302.61369,-11.21863 c 4.40663,-4.54649 8.54347,-8.26635 9.19296,-8.26635 0.6495,0 -2.42452,3.71986 -6.83115,8.26635 -4.40662,4.5465 -8.54346,8.26636 -9.19296,8.26636 -0.6495,0 2.42452,-3.71986 6.83115,-8.26636 z m -294.13806,-6.00617 c -3.58752,-3.96417 -3.68543,-4.56381 -0.54866,-3.36012 2.09998,0.80584 4.39837,2.97721 5.10754,4.82528 1.76455,4.59833 0.58563,4.21945 -4.55888,-1.46516 z m 106.36276,-11.71886 -6.69682,-6.98998 43.50475,-42.18164 c 23.92761,-23.1999 49.88165,-47.5531 57.67564,-54.11822 7.79399,-6.56512 22.67343,-20.62715 33.06542,-31.24897 10.39199,-10.62182 21.81728,-21.43286 25.38952,-24.02455 l 6.495,-4.71216 0,12.98683 0,12.98684 -48.96958,45.62893 c -26.93328,25.09591 -61.29903,57.56157 -76.36835,72.14591 l -27.39876,26.51698 -6.69682,-6.98997 z m 318.85608,2.37323 c 2.35116,-2.598 4.80625,-4.72363 5.45575,-4.72363 0.64949,0 -0.74277,2.12563 -3.09394,4.72363 -2.35116,2.598 -4.80624,4.72363 -5.45574,4.72363 -0.6495,0 0.74276,-2.12563 3.09393,-4.72363 z m -349.65988,-31.29406 -9.33613,-10.03771 10.03772,9.33613 c 5.52074,5.13487 10.03771,9.65185 10.03771,10.03772 0,1.78689 -2.05678,-10e-4 -10.7393,-9.33614 z m 281.16722,-12.70743 c 1.299,-1.13686 6.61086,-5.78393 11.80412,-10.32682 l 9.44232,-8.2598 -7.08051,7.87914 c -3.89425,4.33354 -9.20612,8.98061 -11.80412,10.32682 -2.59799,1.34622 -3.66081,1.51752 -2.36181,0.38066 z"
       id="path3121"
       inkscape:connector-curvature="0" /><path
       style="fill:#565656"
       d="M 290.52391,654.2614 C 258.23353,623.08543 211.53301,578.60869 186.74496,555.42416 124.29642,497.01542 128.0824,501.61043 128.68342,484.95529 l 0.50056,-13.871 6.69541,6.41461 c 8.05991,7.72188 8.88345,10.53293 1.22203,4.1712 -3.01036,-2.49968 -0.61902,-0.10541 5.31408,5.32063 5.93311,5.42602 12.91311,11.97912 15.51111,14.56242 2.59799,2.58329 15.3518,14.48145 28.34179,26.44034 12.98998,11.95889 16.81748,15.11487 8.50554,7.01329 -8.31194,-8.10159 -13.07341,-13.6388 -10.58106,-12.30494 2.49236,1.33389 18.20932,16.83795 34.92658,34.45349 16.71727,17.61555 31.20076,31.53028 32.18554,30.92167 0.98478,-0.60862 16.34762,14.26624 34.13965,33.05526 17.79203,18.789 33.10402,33.92949 34.02663,33.64548 0.92262,-0.28398 8.528,5.81354 16.90086,13.55007 16.43361,15.18466 12.67102,13.58738 -5.00172,-2.12332 -5.92781,-5.26971 -4.01029,-2.99769 4.26115,5.0489 l 15.03898,14.63017 -0.71842,12.53071 -0.71844,12.53071 -58.70978,-56.68358 z m -10.96379,-37.27252 c 0,-0.36542 -6.6426,-7.00803 -14.76135,-14.76135 l -14.76135,-14.09697 14.09697,14.76135 c 13.09487,13.71204 15.42573,15.84211 15.42573,14.09697 z m 73.45987,77.54304 c 0.46228,-14.27966 1.06083,-15.78652 9.57204,-24.09749 4.99339,-4.87592 9.07891,-7.88062 9.07891,-6.67711 0,1.20353 15.5719,-13.72593 34.60422,-33.17655 19.03231,-19.45061 31.52041,-31.66122 27.75133,-27.13468 -3.76908,4.52653 11.81669,-10.61861 34.63502,-33.65588 22.81835,-23.03727 42.85439,-41.88595 44.52452,-41.88595 1.67011,0 16.03938,-13.49274 31.93168,-29.98386 l 28.8951,-29.98385 0.49399,15.25931 0.494,15.25932 -24.33492,23.58134 c -13.38422,12.96974 -38.11598,36.33516 -54.9595,51.92315 -16.84351,15.58798 -55.28175,52.52087 -85.41831,82.07309 -30.13658,29.55222 -55.46143,53.73131 -56.27749,53.73131 -0.81605,0 -1.26182,-6.85446 -0.99059,-15.23215 z m 11.5655,-21.37599 c 4.40663,-4.5465 7.48065,-8.26636 6.83115,-8.26636 -0.6495,0 -4.78633,3.71986 -9.19296,8.26636 -4.40663,4.54649 -7.48065,8.26635 -6.83115,8.26635 0.6495,0 4.78633,-3.71986 9.19296,-8.26635 z m 144.24954,-137.57577 5.72577,-6.49499 -7.08545,5.90454 c -3.89699,3.2475 -7.52829,6.17024 -8.06954,6.49499 -0.54124,0.32475 0.0706,0.59046 1.35967,0.59046 1.28906,0 4.92035,-2.92275 8.06955,-6.495 z m 60.04753,-57.27403 c 2.35117,-2.598 3.74343,-4.72363 3.09394,-4.72363 -0.6495,0 -3.10459,2.12563 -5.45575,4.72363 -2.35117,2.598 -3.74343,4.72363 -3.09393,4.72363 0.6495,0 3.10458,-2.12563 5.45574,-4.72363 z m -216.10615,95.94272 c 0,-0.49043 1.85993,-2.35036 4.13318,-4.13318 3.74598,-2.93779 3.82952,-2.85425 0.89173,0.89173 -3.08541,3.93419 -5.02491,5.18532 -5.02491,3.24145 z m -49.72527,-43.39232 -8.13921,-8.85681 8.8568,8.13922 c 8.24373,7.57578 9.94275,9.5744 8.13922,9.5744 -0.39468,0 -4.38025,-3.98556 -8.85681,-8.85681 z m 115.85612,-20.66589 c 4.40663,-4.54649 8.54346,-8.26635 9.19296,-8.26635 0.6495,0 -2.42452,3.71986 -6.83115,8.26635 -4.40663,4.5465 -8.54346,8.26636 -9.19296,8.26636 -0.6495,0 2.42452,-3.71986 6.83115,-8.26636 z m -185.55113,-46.64586 -6.93686,-7.6759 7.6759,6.93687 c 7.15501,6.46613 8.76151,8.41493 6.93687,8.41493 -0.40647,0 -3.86063,-3.45415 -7.67591,-7.6759 z m -75.42952,-23.0277 c 9.02331,-9.09299 16.93743,-16.53271 17.58693,-16.53271 0.6495,0 -6.2018,7.43972 -15.22512,16.53271 -9.02331,9.09299 -16.93743,16.53271 -17.58693,16.53271 -0.6495,0 6.2018,-7.43972 15.22512,-16.53271 z m 329.47331,3.54272 c 4.40663,-4.54649 8.54346,-8.26635 9.19296,-8.26635 0.6495,0 -2.42452,3.71986 -6.83115,8.26635 -4.40663,4.5465 -8.54346,8.26636 -9.19296,8.26636 -0.6495,0 2.42452,-3.71986 6.83115,-8.26636 z m 47.16808,-12.39953 -15.28357,-15.94225 15.94226,15.28357 c 8.76824,8.40596 15.94225,15.57998 15.94225,15.94226 0,1.73833 -2.40489,-0.47573 -16.60094,-15.28358 z"
       id="path3119"
       inkscape:connector-curvature="0" /><path
       style="fill:#232323"
       d="m 334.77283,666.66818 c -8.93351,-8.07334 -47.06444,-44.14819 -84.73541,-80.16628 -37.67096,-36.01811 -80.43055,-76.88678 -95.02131,-90.81925 l -26.52866,-25.33176 27.52469,-26.13553 c 15.13858,-14.37454 28.28786,-26.13553 29.22062,-26.13553 0.93276,0 29.18061,26.64604 62.773,59.21342 73.91115,71.6559 102.54485,98.21841 104.92285,97.33332 0.98549,-0.36679 29.78476,-27.78466 63.99838,-60.92856 34.21362,-33.14392 71.24052,-68.35441 82.28201,-78.24552 l 20.07543,-17.98385 27.16088,25.74812 27.16089,25.74812 -34.24633,32.93714 C 452.15385,585.77425 376.40005,658.17887 364.29553,669.22653 l -13.27994,12.12046 -16.24276,-14.67881 z"
       id="path3117"
       inkscape:connector-curvature="0" /></g><path
     style="fill:#a0a0a0;stroke:none;display:inline"
     d="m 27.044435,86.761814 68.56506,-67.224401 10.760865,-10.3949086 6.35367,-4.177811 2.11913,1.024661 37.16029,36.9137996 44.97759,41.33676 1.2204,7.27591 0.91655,10.404726 -0.66192,9.30632 -7.77294,8.75462 -20.51351,19.99124 -49.38156,47.49811 -5.01475,2.79406 -7.3981,-1.76319 -41.790795,-39.49508 -36.19108,-35.5089 z M 117.62835,188.82536 c 0.38334,-0.41147 1.1144,-0.74813 1.62457,-0.74813 0.51018,0 1.09852,-0.21546 1.30745,-0.4788 2.29685,-2.89516 6.34143,-7.22146 9.22107,-9.86341 6.07148,-5.57029 13.31719,-12.88754 13.57929,-13.71337 0.14768,-0.46527 0.71501,-0.89114 1.38243,-1.03773 2.02045,-0.44377 19.11847,-16.29565 22.26609,-20.64328 0.62496,-0.86322 1.51193,-1.76869 1.97102,-2.01216 2.12979,-1.12947 17.44435,-15.66291 24.5268,-23.40814 5.65097,-6.1798 5.35417,-5.42248 5.12373,-13.0738 -0.13211,-4.386196 -0.40653,-7.495266 -0.83787,-9.040776 -0.35277,-1.26405 -0.70781,-4.19106 -0.78895,-6.50446 l -0.14758,-4.20618 -4.47955,-4.30445 c -2.46375,-2.367439 -4.59513,-4.233009 -4.73638,-4.145709 -0.14129,0.0873 -2.65846,-2.25913 -5.59373,-5.2143 -2.93528,-2.95517 -5.73333,-5.53045 -6.2179,-5.72282 -0.48454,-0.19237 -1.05875,-0.85963 -1.27599,-1.48279 -0.38549,-1.10588 -4.97554,-5.38314 -5.77677,-5.38314 -0.59458,0 -8.25849,-7.179831 -16.86101,-15.796001 -6.77128,-6.78201 -8.551,-8.3413 -8.24284,-7.22187 0.0527,0.19133 -0.49137,0.75153 -1.20897,1.2449 -0.71759,0.49336 -1.49325,1.22621 -1.72369,1.62856 -0.23045,0.40235 -0.91951,1.19215 -1.53124,1.7551 -1.53824,1.41554 -2.74735,1.15219 -3.04183,-0.66254 -0.12134,-0.74767 -0.58493,-1.74721 -1.03023,-2.22121 -0.72724,-0.7741 -0.80695,-1.29257 -0.78325,-5.0948 0.0145,-2.32814 -0.12891,-4.32897 -0.31871,-4.44627 -0.18981,-0.11731 -0.25185,-0.56986 -0.13788,-1.00569 0.16715,-0.63916 -1.67233,-2.67724 -9.51216,-10.539181 -5.34565,-5.360739 -9.93119,-9.6655086 -10.19008,-9.5661586 -0.25889,0.0993 -0.57259,0.0157 -0.6971,-0.18569 -0.47071,-0.761621 -1.39104,-0.29202 -4.15936,2.12237 -1.75761,1.53289 -2.91987,2.3052296 -3.02628,2.01099 -0.20126,-0.55655 -6.785165,5.9926586 -6.785165,6.7494086 0,0.27369 -0.29391,0.49763 -0.65315,0.49763 -0.35923,0 -1.78129,1.26233 -3.16012,2.805181 -3.79945,4.25141 -15.71898,15.85481 -16.38756,15.95294 -0.32368,0.0475 -5.26525,4.79525 -10.98127,10.55054 -10.60756,10.680421 -12.012,11.990391 -18.03918,16.825691 -1.89607,1.52112 -6.55007,5.87595 -10.34222,9.67741 -3.79215,3.80145 -7.08046,6.875139 -7.30735,6.830419 -0.22691,-0.0447 -1.6609,1.20613 -3.18668,2.77966 -2.09415,2.15971 -2.69251,2.59611 -2.44114,3.04529 0.18315,0.32726 0.20015,2.16607 0.0378,3.58427 -0.33941,2.96469 0.30618,7.71911 1.08896,8.01949 0.27731,0.10641 0.40882,0.34778 0.29227,0.53638 -0.11657,0.1886 -0.0669,0.34291 0.11042,0.34291 0.17729,0 0.36063,0.81875 0.40743,1.81946 0.31607,6.759046 0.76027,10.472866 1.32801,11.102836 0.33497,0.37169 0.72354,1.13465 0.86348,1.69546 0.13993,0.56082 1.31686,2.21845 2.61539,3.68364 1.29853,1.46519 2.94956,3.42103 3.66896,4.34632 0.71939,0.92528 2.18454,2.36351 3.25588,3.19605 4.48528,3.48551 17.19323,15.6995 20.29013,19.50144 0.81855,1.00489 2.19751,2.28643 3.06436,2.84785 0.86686,0.56143 1.71089,1.23245 1.87561,1.49114 0.16473,0.2587 0.89778,0.75425 1.62899,1.10123 2.32517,1.10336 14.26969,12.41999 16.41228,15.54952 0.67473,0.98553 2.25374,2.56089 3.50892,3.5008 2.92919,2.19346 17.818635,17.34572 18.802265,19.13414 0.24533,0.44607 -0.0113,-0.72969 2.60882,1.04191 1.03213,0.69787 2.51374,0.60982 2.85331,0.91039 1.35724,1.20136 4.70452,1.11126 5.88746,-0.15847 l 0,0 z"
     id="path3158"
     inkscape:connector-curvature="0"
     sodipodi:nodetypes="cccccccccccccccccccssssssssssscscssssscscsssscssscssssssssscsccssssssssssssssssssccc" /></svg>